<svg width="1320" height="860" viewBox="0 0 1320 860" fill="none" xmlns="http://www.w3.org/2000/svg">
  <defs>
    <filter id="main_hall-drop" x="0" y="0" width="384" height="336" filterUnits="userSpaceOnUse" color-interpolation-filters="sRGB">
      <feOffset dy="10"/>
      <feGaussianBlur stdDeviation="8"/>
      <feColorMatrix type="matrix" values="0 0 0 0 0.211765 0 0 0 0 0.152941 0 0 0 0 0.105882 0 0 0 0.18 0"/>
      <feBlend in2="SourceGraphic" result="shape"/>
    </filter>
    <filter id="main_hall-mist" x="0" y="0" width="384" height="336" filterUnits="userSpaceOnUse" color-interpolation-filters="sRGB">
      <feGaussianBlur stdDeviation="6"/>
    </filter>
    <filter id="disciple_quarters-drop" x="0" y="0" width="320" height="272" filterUnits="userSpaceOnUse" color-interpolation-filters="sRGB">
      <feOffset dy="10"/>
      <feGaussianBlur stdDeviation="8"/>
      <feColorMatrix type="matrix" values="0 0 0 0 0.211765 0 0 0 0 0.152941 0 0 0 0 0.105882 0 0 0 0.18 0"/>
      <feBlend in2="SourceGraphic" result="shape"/>
    </filter>
    <filter id="disciple_quarters-mist" x="0" y="0" width="320" height="272" filterUnits="userSpaceOnUse" color-interpolation-filters="sRGB">
      <feGaussianBlur stdDeviation="6"/>
    </filter>
    <filter id="warehouse-drop" x="0" y="0" width="256" height="224" filterUnits="userSpaceOnUse" color-interpolation-filters="sRGB">
      <feOffset dy="10"/>
      <feGaussianBlur stdDeviation="8"/>
      <feColorMatrix type="matrix" values="0 0 0 0 0.211765 0 0 0 0 0.152941 0 0 0 0 0.105882 0 0 0 0.18 0"/>
      <feBlend in2="SourceGraphic" result="shape"/>
    </filter>
    <filter id="warehouse-mist" x="0" y="0" width="256" height="224" filterUnits="userSpaceOnUse" color-interpolation-filters="sRGB">
      <feGaussianBlur stdDeviation="6"/>
    </filter>
    <filter id="herb_garden-drop" x="0" y="0" width="256" height="192" filterUnits="userSpaceOnUse" color-interpolation-filters="sRGB">
      <feOffset dy="10"/>
      <feGaussianBlur stdDeviation="8"/>
      <feColorMatrix type="matrix" values="0 0 0 0 0.211765 0 0 0 0 0.152941 0 0 0 0 0.105882 0 0 0 0.18 0"/>
      <feBlend in2="SourceGraphic" result="shape"/>
    </filter>
    <filter id="herb_garden-mist" x="0" y="0" width="256" height="192" filterUnits="userSpaceOnUse" color-interpolation-filters="sRGB">
      <feGaussianBlur stdDeviation="6"/>
    </filter>
    <filter id="guard_tower-drop" x="0" y="0" width="192" height="288" filterUnits="userSpaceOnUse" color-interpolation-filters="sRGB">
      <feOffset dy="10"/>
      <feGaussianBlur stdDeviation="8"/>
      <feColorMatrix type="matrix" values="0 0 0 0 0.211765 0 0 0 0 0.152941 0 0 0 0 0.105882 0 0 0 0.18 0"/>
      <feBlend in2="SourceGraphic" result="shape"/>
    </filter>
    <filter id="guard_tower-mist" x="0" y="0" width="192" height="288" filterUnits="userSpaceOnUse" color-interpolation-filters="sRGB">
      <feGaussianBlur stdDeviation="6"/>
    </filter>
    <filter id="spirit_wood-drop" x="0" y="0" width="128" height="128" filterUnits="userSpaceOnUse" color-interpolation-filters="sRGB">
      <feOffset dy="10"/>
      <feGaussianBlur stdDeviation="8"/>
      <feColorMatrix type="matrix" values="0 0 0 0 0.211765 0 0 0 0 0.152941 0 0 0 0 0.105882 0 0 0 0.18 0"/>
      <feBlend in2="SourceGraphic" result="shape"/>
    </filter>
    <filter id="spirit_wood-mist" x="0" y="0" width="128" height="128" filterUnits="userSpaceOnUse" color-interpolation-filters="sRGB">
      <feGaussianBlur stdDeviation="6"/>
    </filter>
    <filter id="spirit_stone-drop" x="0" y="0" width="128" height="128" filterUnits="userSpaceOnUse" color-interpolation-filters="sRGB">
      <feOffset dy="10"/>
      <feGaussianBlur stdDeviation="8"/>
      <feColorMatrix type="matrix" values="0 0 0 0 0.211765 0 0 0 0 0.152941 0 0 0 0 0.105882 0 0 0 0.18 0"/>
      <feBlend in2="SourceGraphic" result="shape"/>
    </filter>
    <filter id="spirit_stone-mist" x="0" y="0" width="128" height="128" filterUnits="userSpaceOnUse" color-interpolation-filters="sRGB">
      <feGaussianBlur stdDeviation="6"/>
    </filter>
    <filter id="herb-drop" x="0" y="0" width="128" height="112" filterUnits="userSpaceOnUse" color-interpolation-filters="sRGB">
      <feOffset dy="10"/>
      <feGaussianBlur stdDeviation="8"/>
      <feColorMatrix type="matrix" values="0 0 0 0 0.211765 0 0 0 0 0.152941 0 0 0 0 0.105882 0 0 0 0.18 0"/>
      <feBlend in2="SourceGraphic" result="shape"/>
    </filter>
    <filter id="herb-mist" x="0" y="0" width="128" height="112" filterUnits="userSpaceOnUse" color-interpolation-filters="sRGB">
      <feGaussianBlur stdDeviation="6"/>
    </filter>
  </defs>
  <rect width="1320" height="860" fill="#efe5d3"/>
  <rect x="18" y="18" width="1284" height="824" rx="34" fill="#f8f1e4" stroke="rgba(124,88,52,0.18)" stroke-width="2"/>
  <text x="42" y="54" font-family="'PingFang SC','Hiragino Sans GB',sans-serif" font-size="24" fill="#4d392a">Sect Map SVG Asset Pack v1</text>
  <text x="42" y="82" font-family="'PingFang SC','Hiragino Sans GB',sans-serif" font-size="14" fill="#7b6148">2.5D / 45° / transparent background / footprint-bottom-center anchor</text>
  <g transform="translate(30 104)">
    <rect x="0" y="0" width="300" height="330" rx="26" fill="rgba(255,248,236,0.94)" stroke="rgba(140,98,54,0.16)" stroke-width="2"/>
    <text x="24" y="34" font-family="'PingFang SC','Hiragino Sans GB',sans-serif" font-size="16" fill="#4d392a">主殿</text>
    <text x="24" y="58" font-family="'SFMono-Regular',monospace" font-size="12" fill="#8a6a49">main_hall</text>
    <g transform="translate(18 69) scale(0.6875)">
      <ellipse cx="192" cy="240" rx="104" ry="18" fill="#3c2a1b" opacity="0.18" filter="url(#main_hall-mist)"/>
      <ellipse cx="162" cy="176" rx="64" ry="16" fill="#fff8ef" opacity="0.24" filter="url(#main_hall-mist)"/>
      <polygon points="32,217.52 200.96,302 200.96,322 32,237.52" fill="#cfa676" stroke="#4d392a" stroke-opacity="0.28" stroke-width="1.5"/>
      <polygon points="358.4,223.28 200.96,302 200.96,322 358.4,243.28" fill="#9b7049" stroke="#4d392a" stroke-opacity="0.3" stroke-width="1.5"/>
      <polygon points="189.44,138.8 358.4,223.28 200.96,302 32,217.52" fill="#eee1c5" stroke="#4d392a" stroke-opacity="0.36" stroke-width="1.5"/>
      <line x1="189.44" y1="156" x2="70.4" y2="215.52" stroke="#a68256" stroke-opacity="0.2" stroke-width="1"/>
      <line x1="222.08" y1="172.32" x2="103.04" y2="231.84" stroke="#a68256" stroke-opacity="0.2" stroke-width="1"/>
      <line x1="254.72" y1="188.64" x2="135.68" y2="248.16" stroke="#a68256" stroke-opacity="0.2" stroke-width="1"/>
      <line x1="287.36" y1="204.96" x2="168.32" y2="264.48" stroke="#a68256" stroke-opacity="0.2" stroke-width="1"/>
      <line x1="320" y1="221.28" x2="200.96" y2="280.8" stroke="#a68256" stroke-opacity="0.2" stroke-width="1"/>
      <line x1="189.44" y1="156" x2="320" y2="221.28" stroke="#a68256" stroke-opacity="0.2" stroke-width="1"/>
      <line x1="159.68" y1="170.88" x2="290.24" y2="236.16" stroke="#a68256" stroke-opacity="0.2" stroke-width="1"/>
      <line x1="129.92" y1="185.76" x2="260.48" y2="251.04" stroke="#a68256" stroke-opacity="0.2" stroke-width="1"/>
      <line x1="100.16" y1="200.64" x2="230.72" y2="265.92" stroke="#a68256" stroke-opacity="0.2" stroke-width="1"/>
      <line x1="70.4" y1="215.52" x2="200.96" y2="280.8" stroke="#a68256" stroke-opacity="0.2" stroke-width="1"/>
      <polygon points="118.72,231.76 172.48,258.64 172.48,263.64 118.72,236.76" fill="#d8b583" stroke="#4d392a" stroke-opacity="0.28" stroke-width="1.1"/>
      <polygon points="185.6,252.08 172.48,258.64 172.48,263.64 185.6,257.08" fill="#ad8152" stroke="#4d392a" stroke-opacity="0.3" stroke-width="1.1"/>
      <polygon points="131.84,225.2 185.6,252.08 172.48,258.64 118.72,231.76" fill="#f7ecd7" stroke="#4d392a" stroke-opacity="0.36" stroke-width="1.1"/>
      <polygon points="106.88,242.68 160.64,269.56 160.64,274.56 106.88,247.68" fill="#d8b583" stroke="#4d392a" stroke-opacity="0.28" stroke-width="1.1"/>
      <polygon points="173.76,263 160.64,269.56 160.64,274.56 173.76,268" fill="#ad8152" stroke="#4d392a" stroke-opacity="0.3" stroke-width="1.1"/>
      <polygon points="120,236.12 173.76,263 160.64,269.56 106.88,242.68" fill="#f7ecd7" stroke="#4d392a" stroke-opacity="0.36" stroke-width="1.1"/>
      <polygon points="95.04,253.6 148.8,280.48 148.8,285.48 95.04,258.6" fill="#d8b583" stroke="#4d392a" stroke-opacity="0.28" stroke-width="1.1"/>
      <polygon points="161.92,273.92 148.8,280.48 148.8,285.48 161.92,278.92" fill="#ad8152" stroke="#4d392a" stroke-opacity="0.3" stroke-width="1.1"/>
      <polygon points="108.16,247.04 161.92,273.92 148.8,280.48 95.04,253.6" fill="#f7ecd7" stroke="#4d392a" stroke-opacity="0.36" stroke-width="1.1"/>
      <polygon points="83.2,264.52 136.96,291.4 136.96,296.4 83.2,269.52" fill="#d8b583" stroke="#4d392a" stroke-opacity="0.28" stroke-width="1.1"/>
      <polygon points="150.08,284.84 136.96,291.4 136.96,296.4 150.08,289.84" fill="#ad8152" stroke="#4d392a" stroke-opacity="0.3" stroke-width="1.1"/>
      <polygon points="96.32,257.96 150.08,284.84 136.96,291.4 83.2,264.52" fill="#f7ecd7" stroke="#4d392a" stroke-opacity="0.36" stroke-width="1.1"/>
      <polygon points="186.88,208.48 217.6,223.84 134.4,265.44 103.68,250.08" fill="#e8cd92" opacity="0.92" stroke="#a37a49" stroke-opacity="0.26" stroke-width="1.1"/>
      <polygon points="97.28,158.64 138.24,179.12 138.24,219.12 97.28,198.64" fill="#e8d1ac" stroke="#4d392a" stroke-opacity="0.28" stroke-width="1.5"/>
      <polygon points="190.72,152.88 138.24,179.12 138.24,219.12 190.72,192.88" fill="#c39a6b" stroke="#4d392a" stroke-opacity="0.3" stroke-width="1.5"/>
      <polygon points="149.76,132.4 190.72,152.88 138.24,179.12 97.28,158.64" fill="#f5ebd7" stroke="#4d392a" stroke-opacity="0.36" stroke-width="1.5"/>
      <line x1="101.12" y1="136.56" x2="101.12" y2="196.56" stroke="#96604a" stroke-width="6" stroke-linecap="round"/>
      <line x1="119.04" y1="145.52" x2="119.04" y2="205.52" stroke="#96604a" stroke-width="6" stroke-linecap="round"/>
      <polygon points="151.04,85.52 215.04,117.52 161.64,110.5 125.08,92.22" fill="#5f7d84" stroke="#4d392a" stroke-opacity="0.42" stroke-width="1.6"/>
      <polygon points="76.8,122.64 140.8,154.64 161.64,110.5 125.08,92.22" fill="#425960" stroke="#4d392a" stroke-opacity="0.42" stroke-width="1.6"/>
      <polygon points="215.04,117.52 140.8,154.64 161.64,110.5" fill="#2b3d44" stroke="#4d392a" stroke-opacity="0.36" stroke-width="1.4"/>
      <polygon points="151.04,85.52 76.8,122.64 125.08,92.22" fill="#24343a" stroke="#4d392a" stroke-opacity="0.28" stroke-width="1.2"/>
      <line x1="86.46" y1="116.56" x2="144.97" y2="145.81" stroke="#26373d" stroke-opacity="0.24" stroke-width="1"/>
      <line x1="96.11" y1="110.47" x2="149.14" y2="136.98" stroke="#26373d" stroke-opacity="0.24" stroke-width="1"/>
      <line x1="105.77" y1="104.39" x2="153.3" y2="128.16" stroke="#26373d" stroke-opacity="0.24" stroke-width="1"/>
      <line x1="115.43" y1="98.3" x2="157.47" y2="119.33" stroke="#26373d" stroke-opacity="0.24" stroke-width="1"/>
      <polygon points="186.88,203.44 227.84,223.92 227.84,263.92 186.88,243.44" fill="#e8d1ac" stroke="#4d392a" stroke-opacity="0.28" stroke-width="1.5"/>
      <polygon points="280.32,197.68 227.84,223.92 227.84,263.92 280.32,237.68" fill="#c39a6b" stroke="#4d392a" stroke-opacity="0.3" stroke-width="1.5"/>
      <polygon points="239.36,177.2 280.32,197.68 227.84,223.92 186.88,203.44" fill="#f5ebd7" stroke="#4d392a" stroke-opacity="0.36" stroke-width="1.5"/>
      <line x1="190.72" y1="181.36" x2="190.72" y2="241.36" stroke="#96604a" stroke-width="6" stroke-linecap="round"/>
      <line x1="208.64" y1="190.32" x2="208.64" y2="250.32" stroke="#96604a" stroke-width="6" stroke-linecap="round"/>
      <polygon points="240.64,130.32 304.64,162.32 251.24,155.3 214.68,137.02" fill="#5f7d84" stroke="#4d392a" stroke-opacity="0.42" stroke-width="1.6"/>
      <polygon points="166.4,167.44 230.4,199.44 251.24,155.3 214.68,137.02" fill="#425960" stroke="#4d392a" stroke-opacity="0.42" stroke-width="1.6"/>
      <polygon points="304.64,162.32 230.4,199.44 251.24,155.3" fill="#2b3d44" stroke="#4d392a" stroke-opacity="0.36" stroke-width="1.4"/>
      <polygon points="240.64,130.32 166.4,167.44 214.68,137.02" fill="#24343a" stroke="#4d392a" stroke-opacity="0.28" stroke-width="1.2"/>
      <line x1="176.06" y1="161.36" x2="234.57" y2="190.61" stroke="#26373d" stroke-opacity="0.24" stroke-width="1"/>
      <line x1="185.71" y1="155.27" x2="238.74" y2="181.78" stroke="#26373d" stroke-opacity="0.24" stroke-width="1"/>
      <line x1="195.37" y1="149.19" x2="242.9" y2="172.96" stroke="#26373d" stroke-opacity="0.24" stroke-width="1"/>
      <line x1="205.03" y1="143.1" x2="247.07" y2="164.13" stroke="#26373d" stroke-opacity="0.24" stroke-width="1"/>
      <polygon points="134.4,127.52 207.36,164 207.36,222 134.4,185.52" fill="#e8d1ac" stroke="#4d392a" stroke-opacity="0.28" stroke-width="1.5"/>
      <polygon points="273.92,130.72 207.36,164 207.36,222 273.92,188.72" fill="#a47b4e" stroke="#4d392a" stroke-opacity="0.3" stroke-width="1.5"/>
      <polygon points="200.96,94.24 273.92,130.72 207.36,164 134.4,127.52" fill="#f5ebd7" stroke="#4d392a" stroke-opacity="0.36" stroke-width="1.5"/>
      <line x1="139.52" y1="96.08" x2="139.52" y2="188.08" stroke="#96604a" stroke-width="6" stroke-linecap="round"/>
      <line x1="157.44" y1="105.04" x2="157.44" y2="197.04" stroke="#96604a" stroke-width="6" stroke-linecap="round"/>
      <line x1="175.36" y1="114" x2="175.36" y2="206" stroke="#96604a" stroke-width="6" stroke-linecap="round"/>
      <line x1="193.28" y1="122.96" x2="193.28" y2="214.96" stroke="#96604a" stroke-width="6" stroke-linecap="round"/>
      <polygon points="160,167.76 186.88,181.2 186.88,259.2 160,245.76" fill="#59453a" stroke="#7b6148" stroke-opacity="0.3" stroke-width="1.2"/>
      <polygon points="199.68,31.52 304.64,84 230.71,70.95 169.78,40.49" fill="#5f7d84" stroke="#4d392a" stroke-opacity="0.42" stroke-width="1.6"/>
      <polygon points="102.4,80.16 207.36,132.64 230.71,70.95 169.78,40.49" fill="#425960" stroke="#4d392a" stroke-opacity="0.42" stroke-width="1.6"/>
      <polygon points="304.64,84 207.36,132.64 230.71,70.95" fill="#2b3d44" stroke="#4d392a" stroke-opacity="0.36" stroke-width="1.4"/>
      <polygon points="199.68,31.52 102.4,80.16 169.78,40.49" fill="#24343a" stroke="#4d392a" stroke-opacity="0.28" stroke-width="1.2"/>
      <line x1="115.88" y1="72.23" x2="212.03" y2="120.3" stroke="#26373d" stroke-opacity="0.24" stroke-width="1"/>
      <line x1="129.35" y1="64.29" x2="216.7" y2="107.96" stroke="#26373d" stroke-opacity="0.24" stroke-width="1"/>
      <line x1="142.83" y1="56.36" x2="221.37" y2="95.63" stroke="#26373d" stroke-opacity="0.24" stroke-width="1"/>
      <line x1="156.3" y1="48.42" x2="226.04" y2="83.29" stroke="#26373d" stroke-opacity="0.24" stroke-width="1"/>
      <polygon points="172.8,84.24 208.64,102.16 208.64,136.16 172.8,118.24" fill="#e8d1ac" stroke="#4d392a" stroke-opacity="0.28" stroke-width="1.5"/>
      <polygon points="243.2,84.88 208.64,102.16 208.64,136.16 243.2,118.88" fill="#c39a6b" stroke="#4d392a" stroke-opacity="0.3" stroke-width="1.5"/>
      <polygon points="207.36,66.96 243.2,84.88 208.64,102.16 172.8,84.24" fill="#f5ebd7" stroke="#4d392a" stroke-opacity="0.36" stroke-width="1.5"/>
      <polygon points="206.08,25.36 263.68,54.16 221.67,44.47 189.47,28.36" fill="#5f7d84" stroke="#4d392a" stroke-opacity="0.42" stroke-width="1.6"/>
      <polygon points="151.04,52.88 208.64,81.68 221.67,44.47 189.47,28.36" fill="#425960" stroke="#4d392a" stroke-opacity="0.42" stroke-width="1.6"/>
      <polygon points="263.68,54.16 208.64,81.68 221.67,44.47" fill="#2b3d44" stroke="#4d392a" stroke-opacity="0.36" stroke-width="1.4"/>
      <polygon points="206.08,25.36 151.04,52.88 189.47,28.36" fill="#24343a" stroke="#4d392a" stroke-opacity="0.28" stroke-width="1.2"/>
      <line x1="158.73" y1="47.98" x2="211.25" y2="74.24" stroke="#26373d" stroke-opacity="0.24" stroke-width="1"/>
      <line x1="166.41" y1="43.07" x2="213.85" y2="66.79" stroke="#26373d" stroke-opacity="0.24" stroke-width="1"/>
      <line x1="174.1" y1="38.17" x2="216.46" y2="59.35" stroke="#26373d" stroke-opacity="0.24" stroke-width="1"/>
      <line x1="181.78" y1="33.27" x2="219.06" y2="51.91" stroke="#26373d" stroke-opacity="0.24" stroke-width="1"/>
      <line x1="177.46" y1="44.33" x2="238.39" y2="74.79" stroke="#d9b06a" stroke-width="2.4"/>
      <polygon points="207.92,47.56 213.92,57.56 207.92,65.56 201.92,57.56" fill="#d9b06a" stroke="#a8793f" stroke-opacity="0.3" stroke-width="1"/>
      <line x1="189.47" y1="28.36" x2="221.67" y2="44.47" stroke="#d9b06a" stroke-width="2.4"/>
      <polygon points="205.57,24.42 211.57,34.42 205.57,42.42 199.57,34.42" fill="#d9b06a" stroke="#a8793f" stroke-opacity="0.3" stroke-width="1"/>
      <line x1="106.24" y1="226.48" x2="106.24" y2="210.48" stroke="#6b4435" stroke-width="2.2"/>
      <ellipse cx="106.24" cy="207.48" rx="4.5" ry="5.5" fill="#d9b06a" opacity="0.95"/>
      <line x1="183.04" y1="264.88" x2="183.04" y2="248.88" stroke="#6b4435" stroke-width="2.2"/>
      <ellipse cx="183.04" cy="245.88" rx="4.5" ry="5.5" fill="#d9b06a" opacity="0.95"/>
      <ellipse cx="70.8" cy="206.64" rx="12" ry="8" fill="#e6bcc7" opacity="0.94"/>
      <ellipse cx="82.8" cy="202.64" rx="10" ry="7" fill="#e6bcc7" opacity="0.88"/>
      <ellipse cx="220.56" cy="272.56" rx="12" ry="8" fill="#a3d1d6" opacity="0.94"/>
      <ellipse cx="232.56" cy="268.56" rx="10" ry="7" fill="#84bcc5" opacity="0.88"/>
    </g>
  </g>
  <g transform="translate(350 104)">
    <rect x="0" y="0" width="300" height="330" rx="26" fill="rgba(255,248,236,0.94)" stroke="rgba(140,98,54,0.16)" stroke-width="2"/>
    <text x="24" y="34" font-family="'PingFang SC','Hiragino Sans GB',sans-serif" font-size="16" fill="#4d392a">弟子居</text>
    <text x="24" y="58" font-family="'SFMono-Regular',monospace" font-size="12" fill="#8a6a49">disciple_quarters</text>
    <g transform="translate(18 75.60000000000002) scale(0.825)">
      <ellipse cx="192" cy="208" rx="90" ry="15" fill="#3c2a1b" opacity="0.16" filter="url(#disciple_quarters-mist)"/>
      <polygon points="33.28,191.6 139.52,244.72 139.52,258.72 33.28,205.6" fill="#c79c6f" stroke="#4d392a" stroke-opacity="0.28" stroke-width="1.5"/>
      <polygon points="290.56,169.2 139.52,244.72 139.52,258.72 290.56,183.2" fill="#966847" stroke="#4d392a" stroke-opacity="0.3" stroke-width="1.5"/>
      <polygon points="184.32,116.08 290.56,169.2 139.52,244.72 33.28,191.6" fill="#eee1c5" stroke="#4d392a" stroke-opacity="0.36" stroke-width="1.5"/>
      <line x1="179.2" y1="128.16" x2="60.16" y2="187.68" stroke="#a68256" stroke-opacity="0.2" stroke-width="1"/>
      <line x1="206.93" y1="142.03" x2="87.89" y2="201.55" stroke="#a68256" stroke-opacity="0.2" stroke-width="1"/>
      <line x1="234.67" y1="155.89" x2="115.63" y2="215.41" stroke="#a68256" stroke-opacity="0.2" stroke-width="1"/>
      <line x1="262.4" y1="169.76" x2="143.36" y2="229.28" stroke="#a68256" stroke-opacity="0.2" stroke-width="1"/>
      <line x1="179.2" y1="128.16" x2="262.4" y2="169.76" stroke="#a68256" stroke-opacity="0.2" stroke-width="1"/>
      <line x1="155.39" y1="140.06" x2="238.59" y2="181.66" stroke="#a68256" stroke-opacity="0.2" stroke-width="1"/>
      <line x1="131.58" y1="151.97" x2="214.78" y2="193.57" stroke="#a68256" stroke-opacity="0.2" stroke-width="1"/>
      <line x1="107.78" y1="163.87" x2="190.98" y2="205.47" stroke="#a68256" stroke-opacity="0.2" stroke-width="1"/>
      <line x1="83.97" y1="175.78" x2="167.17" y2="217.38" stroke="#a68256" stroke-opacity="0.2" stroke-width="1"/>
      <line x1="60.16" y1="187.68" x2="143.36" y2="229.28" stroke="#a68256" stroke-opacity="0.2" stroke-width="1"/>
      <polygon points="128,93.76 197.12,128.32 197.12,168.32 128,133.76" fill="#e8d1ac" stroke="#4d392a" stroke-opacity="0.28" stroke-width="1.5"/>
      <polygon points="243.2,105.28 197.12,128.32 197.12,168.32 243.2,145.28" fill="#c39a6b" stroke="#4d392a" stroke-opacity="0.3" stroke-width="1.5"/>
      <polygon points="174.08,70.72 243.2,105.28 197.12,128.32 128,93.76" fill="#f5ebd7" stroke="#4d392a" stroke-opacity="0.36" stroke-width="1.5"/>
      <line x1="133.12" y1="70.32" x2="133.12" y2="136.32" stroke="#96604a" stroke-width="6" stroke-linecap="round"/>
      <line x1="152.32" y1="79.92" x2="152.32" y2="145.92" stroke="#96604a" stroke-width="6" stroke-linecap="round"/>
      <line x1="171.52" y1="89.52" x2="171.52" y2="155.52" stroke="#96604a" stroke-width="6" stroke-linecap="round"/>
      <polygon points="174.08,27.2 266.24,73.28 212.48,61.93 156.77,34.08" fill="#5f7d84" stroke="#4d392a" stroke-opacity="0.42" stroke-width="1.6"/>
      <polygon points="107.52,60.48 199.68,106.56 212.48,61.93 156.77,34.08" fill="#425960" stroke="#4d392a" stroke-opacity="0.42" stroke-width="1.6"/>
      <polygon points="266.24,73.28 199.68,106.56 212.48,61.93" fill="#2b3d44" stroke="#4d392a" stroke-opacity="0.36" stroke-width="1.4"/>
      <polygon points="174.08,27.2 107.52,60.48 156.77,34.08" fill="#24343a" stroke="#4d392a" stroke-opacity="0.28" stroke-width="1.2"/>
      <line x1="117.37" y1="55.2" x2="202.24" y2="97.63" stroke="#26373d" stroke-opacity="0.24" stroke-width="1"/>
      <line x1="127.22" y1="49.92" x2="204.8" y2="88.71" stroke="#26373d" stroke-opacity="0.24" stroke-width="1"/>
      <line x1="137.07" y1="44.64" x2="207.36" y2="79.78" stroke="#26373d" stroke-opacity="0.24" stroke-width="1"/>
      <line x1="146.92" y1="39.36" x2="209.92" y2="70.86" stroke="#26373d" stroke-opacity="0.24" stroke-width="1"/>
      <polygon points="80.64,134.96 149.76,169.52 149.76,209.52 80.64,174.96" fill="#e8d1ac" stroke="#4d392a" stroke-opacity="0.28" stroke-width="1.5"/>
      <polygon points="195.84,146.48 149.76,169.52 149.76,209.52 195.84,186.48" fill="#c39a6b" stroke="#4d392a" stroke-opacity="0.3" stroke-width="1.5"/>
      <polygon points="126.72,111.92 195.84,146.48 149.76,169.52 80.64,134.96" fill="#f5ebd7" stroke="#4d392a" stroke-opacity="0.36" stroke-width="1.5"/>
      <line x1="85.76" y1="111.52" x2="85.76" y2="179.52" stroke="#96604a" stroke-width="6" stroke-linecap="round"/>
      <line x1="104.96" y1="121.12" x2="104.96" y2="189.12" stroke="#96604a" stroke-width="6" stroke-linecap="round"/>
      <line x1="124.16" y1="130.72" x2="124.16" y2="198.72" stroke="#96604a" stroke-width="6" stroke-linecap="round"/>
      <polygon points="126.72,68.4 218.88,114.48 165.12,105.13 109.41,77.28" fill="#5f7d84" stroke="#4d392a" stroke-opacity="0.42" stroke-width="1.6"/>
      <polygon points="60.16,101.68 152.32,147.76 165.12,105.13 109.41,77.28" fill="#425960" stroke="#4d392a" stroke-opacity="0.42" stroke-width="1.6"/>
      <polygon points="218.88,114.48 152.32,147.76 165.12,105.13" fill="#2b3d44" stroke="#4d392a" stroke-opacity="0.36" stroke-width="1.4"/>
      <polygon points="126.72,68.4 60.16,101.68 109.41,77.28" fill="#24343a" stroke="#4d392a" stroke-opacity="0.28" stroke-width="1.2"/>
      <line x1="70.01" y1="96.8" x2="154.88" y2="139.23" stroke="#26373d" stroke-opacity="0.24" stroke-width="1"/>
      <line x1="79.86" y1="91.92" x2="157.44" y2="130.71" stroke="#26373d" stroke-opacity="0.24" stroke-width="1"/>
      <line x1="89.71" y1="87.04" x2="160" y2="122.18" stroke="#26373d" stroke-opacity="0.24" stroke-width="1"/>
      <line x1="99.56" y1="82.16" x2="162.56" y2="113.66" stroke="#26373d" stroke-opacity="0.24" stroke-width="1"/>
      <polygon points="136.96,169.6 158.72,180.48 158.72,206.48 136.96,195.6" fill="#dab98f" stroke="#4d392a" stroke-opacity="0.28" stroke-width="1.5"/>
      <polygon points="234.24,142.72 158.72,180.48 158.72,206.48 234.24,168.72" fill="#b48d60" stroke="#4d392a" stroke-opacity="0.3" stroke-width="1.5"/>
      <polygon points="212.48,131.84 234.24,142.72 158.72,180.48 136.96,169.6" fill="#f5ebd7" stroke="#4d392a" stroke-opacity="0.36" stroke-width="1.5"/>
      <polygon points="212.48,96 241.92,110.72 158.72,162.32 129.28,147.6" fill="#425960" stroke="#4d392a" stroke-opacity="0.32" stroke-width="1.3"/>
      <line x1="93.44" y1="148.64" x2="143.36" y2="128.4" stroke="#6b4435" stroke-width="2.2"/>
      <line x1="143.36" y1="128.4" x2="143.36" y2="178.72" stroke="#6b4435" stroke-width="2.2"/>
      <polygon points="127.36,138.4 138.36,132.4 145.36,140.4 133.36,146.4" fill="#e6bfc7" opacity="0.94"/>
      <polygon points="133.36,184.72 147.36,177.72 153.36,186.72 139.36,193.72" fill="#a3c7cf" opacity="0.9"/>
      <ellipse cx="153.6" cy="210.48" rx="7" ry="4" fill="#b8874a"/>
      <path d="M 146.6 210.48 L 146.6 224.48 Q 153.6 230.48 160.6 224.48 L 160.6 210.48" fill="#9a6c3e" stroke="#6f4b2e" stroke-opacity="0.3" stroke-width="1.2"/>
      <ellipse cx="64.4" cy="175.6" rx="12" ry="8" fill="#a9c77d" opacity="0.94"/>
      <ellipse cx="76.4" cy="171.6" rx="10" ry="7" fill="#7ea660" opacity="0.88"/>
      <line x1="148.48" y1="222.88" x2="148.48" y2="206.88" stroke="#6b4435" stroke-width="2.2"/>
      <ellipse cx="148.48" cy="203.88" rx="4.5" ry="5.5" fill="#d9b06a" opacity="0.95"/>
    </g>
  </g>
  <g transform="translate(670 104)">
    <rect x="0" y="0" width="300" height="330" rx="26" fill="rgba(255,248,236,0.94)" stroke="rgba(140,98,54,0.16)" stroke-width="2"/>
    <text x="24" y="34" font-family="'PingFang SC','Hiragino Sans GB',sans-serif" font-size="16" fill="#4d392a">仓库</text>
    <text x="24" y="58" font-family="'SFMono-Regular',monospace" font-size="12" fill="#8a6a49">warehouse</text>
    <g transform="translate(18 69) scale(1.0313)">
      <ellipse cx="128" cy="192" rx="72" ry="14" fill="#3c2a1b" opacity="0.16" filter="url(#warehouse-mist)"/>
      <polygon points="24.32,148.8 134.4,203.84 134.4,217.84 24.32,162.8" fill="#c79d6e" stroke="#4d392a" stroke-opacity="0.28" stroke-width="1.5"/>
      <polygon points="235.52,153.28 134.4,203.84 134.4,217.84 235.52,167.28" fill="#936746" stroke="#4d392a" stroke-opacity="0.3" stroke-width="1.5"/>
      <polygon points="125.44,98.24 235.52,153.28 134.4,203.84 24.32,148.8" fill="#eee1c5" stroke="#4d392a" stroke-opacity="0.36" stroke-width="1.5"/>
      <polygon points="69.12,73.76 135.68,107.04 135.68,151.04 69.12,117.76" fill="#e8d1ac" stroke="#4d392a" stroke-opacity="0.28" stroke-width="1.5"/>
      <polygon points="190.72,79.52 135.68,107.04 135.68,151.04 190.72,123.52" fill="#a47b4e" stroke="#4d392a" stroke-opacity="0.3" stroke-width="1.5"/>
      <polygon points="124.16,46.24 190.72,79.52 135.68,107.04 69.12,73.76" fill="#f5ebd7" stroke="#4d392a" stroke-opacity="0.36" stroke-width="1.5"/>
      <line x1="75.52" y1="50.96" x2="75.52" y2="118.96" stroke="#96604a" stroke-width="6" stroke-linecap="round"/>
      <line x1="90.88" y1="58.64" x2="90.88" y2="126.64" stroke="#96604a" stroke-width="6" stroke-linecap="round"/>
      <line x1="106.24" y1="66.32" x2="106.24" y2="134.32" stroke="#96604a" stroke-width="6" stroke-linecap="round"/>
      <polygon points="93.44,105.36 115.2,116.24 115.2,170.24 93.44,159.36" fill="#59453a" stroke="#7b6148" stroke-opacity="0.3" stroke-width="1.2"/>
      <polygon points="124.16,-0.56 218.88,46.8 157.72,35.87 102.02,8.02" fill="#5f7d84" stroke="#4d392a" stroke-opacity="0.42" stroke-width="1.6"/>
      <polygon points="46.08,38.48 140.8,85.84 157.72,35.87 102.02,8.02" fill="#425960" stroke="#4d392a" stroke-opacity="0.42" stroke-width="1.6"/>
      <polygon points="218.88,46.8 140.8,85.84 157.72,35.87" fill="#2b3d44" stroke="#4d392a" stroke-opacity="0.36" stroke-width="1.4"/>
      <polygon points="124.16,-0.56 46.08,38.48 102.02,8.02" fill="#24343a" stroke="#4d392a" stroke-opacity="0.28" stroke-width="1.2"/>
      <line x1="57.27" y1="32.39" x2="144.18" y2="75.85" stroke="#26373d" stroke-opacity="0.24" stroke-width="1"/>
      <line x1="68.45" y1="26.3" x2="147.57" y2="65.85" stroke="#26373d" stroke-opacity="0.24" stroke-width="1"/>
      <line x1="79.64" y1="20.2" x2="150.95" y2="55.86" stroke="#26373d" stroke-opacity="0.24" stroke-width="1"/>
      <line x1="90.83" y1="14.11" x2="154.34" y2="45.87" stroke="#26373d" stroke-opacity="0.24" stroke-width="1"/>
      <polygon points="122.88,122.24 148.48,135.04 148.48,163.04 122.88,150.24" fill="#d8b689" stroke="#4d392a" stroke-opacity="0.28" stroke-width="1.5"/>
      <polygon points="177.92,120.32 148.48,135.04 148.48,163.04 177.92,148.32" fill="#b58d60" stroke="#4d392a" stroke-opacity="0.3" stroke-width="1.5"/>
      <polygon points="152.32,107.52 177.92,120.32 148.48,135.04 122.88,122.24" fill="#f5ebd7" stroke="#4d392a" stroke-opacity="0.36" stroke-width="1.5"/>
      <polygon points="151.04,73.84 193.28,94.96 161.1,90.12 136.73,77.93" fill="#5f7d84" stroke="#4d392a" stroke-opacity="0.42" stroke-width="1.6"/>
      <polygon points="107.52,95.6 149.76,116.72 161.1,90.12 136.73,77.93" fill="#425960" stroke="#4d392a" stroke-opacity="0.42" stroke-width="1.6"/>
      <polygon points="193.28,94.96 149.76,116.72 161.1,90.12" fill="#2b3d44" stroke="#4d392a" stroke-opacity="0.36" stroke-width="1.4"/>
      <polygon points="151.04,73.84 107.52,95.6 136.73,77.93" fill="#24343a" stroke="#4d392a" stroke-opacity="0.28" stroke-width="1.2"/>
      <line x1="113.36" y1="92.07" x2="152.03" y2="111.4" stroke="#26373d" stroke-opacity="0.24" stroke-width="1"/>
      <line x1="119.2" y1="88.53" x2="154.3" y2="106.08" stroke="#26373d" stroke-opacity="0.24" stroke-width="1"/>
      <line x1="125.05" y1="85" x2="156.56" y2="100.76" stroke="#26373d" stroke-opacity="0.24" stroke-width="1"/>
      <line x1="130.89" y1="81.46" x2="158.83" y2="95.44" stroke="#26373d" stroke-opacity="0.24" stroke-width="1"/>
      <polygon points="38.4,141.44 52.48,148.48 52.48,156.48 38.4,149.44" fill="#93673a" stroke="#4d392a" stroke-opacity="0.28" stroke-width="1"/>
      <polygon points="66.56,141.44 52.48,148.48 52.48,156.48 66.56,149.44" fill="#875b2e" stroke="#4d392a" stroke-opacity="0.3" stroke-width="1"/>
      <polygon points="52.48,134.4 66.56,141.44 52.48,148.48 38.4,141.44" fill="#9f7346" stroke="#4d392a" stroke-opacity="0.36" stroke-width="1"/>
      <polygon points="46.08,156.24 60.16,163.28 60.16,171.28 46.08,164.24" fill="#a47541" stroke="#4d392a" stroke-opacity="0.28" stroke-width="1"/>
      <polygon points="74.24,156.24 60.16,163.28 60.16,171.28 74.24,164.24" fill="#986935" stroke="#4d392a" stroke-opacity="0.3" stroke-width="1"/>
      <polygon points="60.16,149.2 74.24,156.24 60.16,163.28 46.08,156.24" fill="#b0814d" stroke="#4d392a" stroke-opacity="0.36" stroke-width="1"/>
      <polygon points="120.32,170.16 134.4,177.2 134.4,185.2 120.32,178.16" fill="#916133" stroke="#4d392a" stroke-opacity="0.28" stroke-width="1"/>
      <polygon points="148.48,170.16 134.4,177.2 134.4,185.2 148.48,178.16" fill="#855527" stroke="#4d392a" stroke-opacity="0.3" stroke-width="1"/>
      <polygon points="134.4,163.12 148.48,170.16 134.4,177.2 120.32,170.16" fill="#9d6d3f" stroke="#4d392a" stroke-opacity="0.36" stroke-width="1"/>
      <ellipse cx="128" cy="187.12" rx="12" ry="7" fill="#d9c39a" stroke="#9b7a52" stroke-opacity="0.26" stroke-width="1.2"/>
      <ellipse cx="129.28" cy="149.92" rx="5.2" ry="5.2" fill="#d9b06a" opacity="0.96"/>
    </g>
  </g>
  <g transform="translate(990 104)">
    <rect x="0" y="0" width="300" height="330" rx="26" fill="rgba(255,248,236,0.94)" stroke="rgba(140,98,54,0.16)" stroke-width="2"/>
    <text x="24" y="34" font-family="'PingFang SC','Hiragino Sans GB',sans-serif" font-size="16" fill="#4d392a">药圃</text>
    <text x="24" y="58" font-family="'SFMono-Regular',monospace" font-size="12" fill="#8a6a49">herb_garden</text>
    <g transform="translate(18 102) scale(1.0313)">
      <ellipse cx="128" cy="160" rx="68" ry="12" fill="#3c2a1b" opacity="0.12" filter="url(#herb_garden-mist)"/>
      <polygon points="25.6,122.72 131.84,175.84 131.84,183.84 25.6,130.72" fill="#cfa676" stroke="#4d392a" stroke-opacity="0.28" stroke-width="1.1"/>
      <polygon points="230.4,126.56 131.84,175.84 131.84,183.84 230.4,134.56" fill="#9b7049" stroke="#4d392a" stroke-opacity="0.3" stroke-width="1.1"/>
      <polygon points="124.16,73.44 230.4,126.56 131.84,175.84 25.6,122.72" fill="#eee1c5" stroke="#4d392a" stroke-opacity="0.36" stroke-width="1.1"/>
      <polygon points="93.44,89.2 128,106.48 128,114.48 93.44,97.2" fill="#6f5033" stroke="#4d392a" stroke-opacity="0.28" stroke-width="1"/>
      <polygon points="153.6,93.68 128,106.48 128,114.48 153.6,101.68" fill="#5b412b" stroke="#4d392a" stroke-opacity="0.3" stroke-width="1"/>
      <polygon points="119.04,76.4 153.6,93.68 128,106.48 93.44,89.2" fill="#8f6a43" stroke="#4d392a" stroke-opacity="0.36" stroke-width="1"/>
      <ellipse cx="114.21" cy="77.79" rx="12" ry="8" fill="#a9c77d" opacity="0.94"/>
      <ellipse cx="132.21" cy="73.79" rx="14" ry="9" fill="#7ea660" opacity="0.94"/>
      <ellipse cx="124.21" cy="63.79" rx="10" ry="7" fill="#7ea660" opacity="0.88"/>
      <polygon points="126.72,114.8 162.56,132.72 162.56,140.72 126.72,122.8" fill="#6f5033" stroke="#4d392a" stroke-opacity="0.28" stroke-width="1"/>
      <polygon points="189.44,119.28 162.56,132.72 162.56,140.72 189.44,127.28" fill="#5b412b" stroke="#4d392a" stroke-opacity="0.3" stroke-width="1"/>
      <polygon points="153.6,101.36 189.44,119.28 162.56,132.72 126.72,114.8" fill="#8f6a43" stroke="#4d392a" stroke-opacity="0.36" stroke-width="1"/>
      <ellipse cx="148.8" cy="103.4" rx="12" ry="8" fill="#a9c77d" opacity="0.94"/>
      <ellipse cx="166.8" cy="99.4" rx="14" ry="9" fill="#7ea660" opacity="0.94"/>
      <ellipse cx="158.8" cy="89.4" rx="10" ry="7" fill="#7ea660" opacity="0.88"/>
      <polygon points="55.04,117.36 89.6,134.64 89.6,142.64 55.04,125.36" fill="#6f5033" stroke="#4d392a" stroke-opacity="0.28" stroke-width="1"/>
      <polygon points="116.48,121.2 89.6,134.64 89.6,142.64 116.48,129.2" fill="#5b412b" stroke="#4d392a" stroke-opacity="0.3" stroke-width="1"/>
      <polygon points="81.92,103.92 116.48,121.2 89.6,134.64 55.04,117.36" fill="#8f6a43" stroke="#4d392a" stroke-opacity="0.36" stroke-width="1"/>
      <ellipse cx="76.45" cy="105.63" rx="12" ry="8" fill="#a9c77d" opacity="0.94"/>
      <ellipse cx="94.45" cy="101.63" rx="14" ry="9" fill="#55763f" opacity="0.94"/>
      <ellipse cx="86.45" cy="91.63" rx="10" ry="7" fill="#55763f" opacity="0.88"/>
      <polygon points="98.56,137.84 130.56,153.84 130.56,161.84 98.56,145.84" fill="#6f5033" stroke="#4d392a" stroke-opacity="0.28" stroke-width="1"/>
      <polygon points="154.88,141.68 130.56,153.84 130.56,161.84 154.88,149.68" fill="#5b412b" stroke="#4d392a" stroke-opacity="0.3" stroke-width="1"/>
      <polygon points="122.88,125.68 154.88,141.68 130.56,153.84 98.56,137.84" fill="#8f6a43" stroke="#4d392a" stroke-opacity="0.36" stroke-width="1"/>
      <ellipse cx="117.36" cy="126.08" rx="12" ry="8" fill="#a9c77d" opacity="0.94"/>
      <ellipse cx="135.36" cy="122.08" rx="14" ry="9" fill="#7ea660" opacity="0.94"/>
      <ellipse cx="127.36" cy="112.08" rx="10" ry="7" fill="#7ea660" opacity="0.88"/>
      <line x1="135.68" y1="54.88" x2="135.68" y2="80.88" stroke="#96604a" stroke-width="4" stroke-linecap="round"/>
      <line x1="175.36" y1="74.72" x2="175.36" y2="100.72" stroke="#96604a" stroke-width="4" stroke-linecap="round"/>
      <line x1="172.8" y1="36.32" x2="172.8" y2="62.32" stroke="#96604a" stroke-width="4" stroke-linecap="round"/>
      <line x1="212.48" y1="56.16" x2="212.48" y2="82.16" stroke="#96604a" stroke-width="4" stroke-linecap="round"/>
      <polygon points="172.8,23.04 215.04,44.16 175.36,72 133.12,50.88" fill="#425960" stroke="#4d392a" stroke-opacity="0.32" stroke-width="1.3"/>
      <line x1="99.84" y1="72.8" x2="121.6" y2="83.68" stroke="#6b4435" stroke-width="3"/>
      <line x1="99.84" y1="72.8" x2="99.84" y2="90.8" stroke="#6b4435" stroke-width="2.2"/>
      <line x1="121.6" y1="83.68" x2="121.6" y2="101.68" stroke="#6b4435" stroke-width="2.2"/>
      <polygon points="102.84,77.8 119.6,86.68 125.6,95.68 107.84,86.8" fill="#d7c497" opacity="0.88"/>
      <ellipse cx="122.88" cy="153.28" rx="10" ry="6" fill="#b98b4a"/>
      <line x1="116.88" y1="151.28" x2="128.88" y2="151.28" stroke="#8a6332" stroke-width="1.4"/>
      <path d="M 42.64 111.76 Q 38.64 99.76 48.64 95.76 Q 58.64 99.76 54.64 111.76 Q 48.64 117.76 42.64 111.76 Z" fill="#8cb7c6" stroke="#5f8594" stroke-opacity="0.34" stroke-width="1.2"/>
    </g>
  </g>
  <g transform="translate(30 458)">
    <rect x="0" y="0" width="300" height="330" rx="26" fill="rgba(255,248,236,0.94)" stroke="rgba(140,98,54,0.16)" stroke-width="2"/>
    <text x="24" y="34" font-family="'PingFang SC','Hiragino Sans GB',sans-serif" font-size="16" fill="#4d392a">护山台</text>
    <text x="24" y="58" font-family="'SFMono-Regular',monospace" font-size="12" fill="#8a6a49">guard_tower</text>
    <g transform="translate(68.66666666666667 56) scale(0.8472)">
      <ellipse cx="128" cy="288" rx="56" ry="12" fill="#3c2a1b" opacity="0.16" filter="url(#guard_tower-mist)"/>
      <polygon points="19.2,241.52 74.24,269.04 74.24,283.04 19.2,255.52" fill="#cfa676" stroke="#4d392a" stroke-opacity="0.28" stroke-width="1.5"/>
      <polygon points="174.08,219.12 74.24,269.04 74.24,283.04 174.08,233.12" fill="#9b7049" stroke="#4d392a" stroke-opacity="0.3" stroke-width="1.5"/>
      <polygon points="119.04,191.6 174.08,219.12 74.24,269.04 19.2,241.52" fill="#eee1c5" stroke="#4d392a" stroke-opacity="0.36" stroke-width="1.5"/>
      <polygon points="78.08,104.88 101.12,116.4 101.12,228.4 78.08,216.88" fill="#c59b69" stroke="#4d392a" stroke-opacity="0.28" stroke-width="1.5"/>
      <polygon points="126.72,103.6 101.12,116.4 101.12,228.4 126.72,215.6" fill="#996e49" stroke="#4d392a" stroke-opacity="0.3" stroke-width="1.5"/>
      <polygon points="103.68,92.08 126.72,103.6 101.12,116.4 78.08,104.88" fill="#ead9b8" stroke="#4d392a" stroke-opacity="0.36" stroke-width="1.5"/>
      <line x1="80" y1="79.84" x2="80" y2="199.84" stroke="#96604a" stroke-width="6" stroke-linecap="round"/>
      <line x1="91.52" y1="85.6" x2="91.52" y2="205.6" stroke="#96604a" stroke-width="6" stroke-linecap="round"/>
      <polygon points="61.44,79.68 107.52,102.72 107.52,122.72 61.44,99.68" fill="#e8d1ac" stroke="#4d392a" stroke-opacity="0.28" stroke-width="1.5"/>
      <polygon points="153.6,79.68 107.52,102.72 107.52,122.72 153.6,99.68" fill="#c39a6b" stroke="#4d392a" stroke-opacity="0.3" stroke-width="1.5"/>
      <polygon points="107.52,56.64 153.6,79.68 107.52,102.72 61.44,79.68" fill="#f5ebd7" stroke="#4d392a" stroke-opacity="0.36" stroke-width="1.5"/>
      <line x1="65.28" y1="57.6" x2="65.28" y2="119.6" stroke="#96604a" stroke-width="6" stroke-linecap="round"/>
      <line x1="78.72" y1="64.32" x2="78.72" y2="126.32" stroke="#96604a" stroke-width="6" stroke-linecap="round"/>
      <line x1="92.16" y1="71.04" x2="92.16" y2="133.04" stroke="#96604a" stroke-width="6" stroke-linecap="round"/>
      <polygon points="107.52,12.96 168.96,43.68 123.65,35.89 87.09,17.62" fill="#5f7d84" stroke="#4d392a" stroke-opacity="0.42" stroke-width="1.6"/>
      <polygon points="46.08,43.68 107.52,74.4 123.65,35.89 87.09,17.62" fill="#425960" stroke="#4d392a" stroke-opacity="0.42" stroke-width="1.6"/>
      <polygon points="168.96,43.68 107.52,74.4 123.65,35.89" fill="#2b3d44" stroke="#4d392a" stroke-opacity="0.36" stroke-width="1.4"/>
      <polygon points="107.52,12.96 46.08,43.68 87.09,17.62" fill="#24343a" stroke="#4d392a" stroke-opacity="0.28" stroke-width="1.2"/>
      <line x1="54.28" y1="38.47" x2="110.75" y2="66.7" stroke="#26373d" stroke-opacity="0.24" stroke-width="1"/>
      <line x1="62.48" y1="33.25" x2="113.97" y2="59" stroke="#26373d" stroke-opacity="0.24" stroke-width="1"/>
      <line x1="70.69" y1="28.04" x2="117.2" y2="51.3" stroke="#26373d" stroke-opacity="0.24" stroke-width="1"/>
      <line x1="78.89" y1="22.83" x2="120.42" y2="43.6" stroke="#26373d" stroke-opacity="0.24" stroke-width="1"/>
      <line x1="126.72" y1="19.76" x2="126.72" y2="63.76" stroke="#6b4435" stroke-width="2.4"/>
      <polygon points="126.72,25.76 148.72,31.76 136.72,43.76 126.72,37.76" fill="#a45a55" opacity="0.92"/>
      <line x1="103.68" y1="53.6" x2="103.68" y2="65.6" stroke="#6b4435" stroke-width="1.4"/>
      <ellipse cx="103.68" cy="67.6" rx="4.5" ry="5.5" fill="#d9b06a" opacity="0.9"/>
    </g>
  </g>
  <g transform="translate(350 458)">
    <rect x="0" y="0" width="300" height="330" rx="26" fill="rgba(255,248,236,0.94)" stroke="rgba(140,98,54,0.16)" stroke-width="2"/>
    <text x="24" y="34" font-family="'PingFang SC','Hiragino Sans GB',sans-serif" font-size="16" fill="#4d392a">灵木</text>
    <text x="24" y="58" font-family="'SFMono-Regular',monospace" font-size="12" fill="#8a6a49">spirit_wood</text>
    <g transform="translate(28 56) scale(1.9063)">
      <ellipse cx="64" cy="160" rx="32" ry="8" fill="#3c2a1b" opacity="0.12" filter="url(#spirit_wood-mist)"/>
      <polygon points="25.6,92 64,111.2 64,117.2 25.6,98" fill="#b89265" stroke="#4d392a" stroke-opacity="0.28" stroke-width="1.1"/>
      <polygon points="101.12,92.64 64,111.2 64,117.2 101.12,98.64" fill="#8f6844" stroke="#4d392a" stroke-opacity="0.3" stroke-width="1.1"/>
      <polygon points="62.72,73.44 101.12,92.64 64,111.2 25.6,92" fill="#dac8a4" stroke="#4d392a" stroke-opacity="0.36" stroke-width="1.1"/>
      <polygon points="48.64,48.88 62.72,55.92 62.72,85.92 48.64,78.88" fill="#65452f" stroke="#4d392a" stroke-opacity="0.28" stroke-width="1.5"/>
      <polygon points="76.8,48.88 62.72,55.92 62.72,85.92 76.8,78.88" fill="#503726" stroke="#4d392a" stroke-opacity="0.3" stroke-width="1.5"/>
      <polygon points="62.72,41.84 76.8,48.88 62.72,55.92 48.64,48.88" fill="#8c6544" stroke="#4d392a" stroke-opacity="0.36" stroke-width="1.5"/>
      <polygon points="55.04,81.76 70.4,89.44 70.4,99.44 55.04,91.76" fill="#7c5637" stroke="#4d392a" stroke-opacity="0.28" stroke-width="1.5"/>
      <polygon points="80.64,84.32 70.4,89.44 70.4,99.44 80.64,94.32" fill="#63432b" stroke="#4d392a" stroke-opacity="0.3" stroke-width="1.5"/>
      <polygon points="65.28,76.64 80.64,84.32 70.4,89.44 55.04,81.76" fill="#9d7348" stroke="#4d392a" stroke-opacity="0.36" stroke-width="1.5"/>
      <polygon points="32,73.52 43.52,79.28 43.52,87.28 32,81.52" fill="#7f5738" stroke="#4d392a" stroke-opacity="0.28" stroke-width="1.5"/>
      <polygon points="52.48,74.8 43.52,79.28 43.52,87.28 52.48,82.8" fill="#65442d" stroke="#4d392a" stroke-opacity="0.3" stroke-width="1.5"/>
      <polygon points="40.96,69.04 52.48,74.8 43.52,79.28 32,73.52" fill="#aa8050" stroke="#4d392a" stroke-opacity="0.36" stroke-width="1.5"/>
      <line x1="69.12" y1="24.48" x2="73.12" y2="-1.52" stroke="#64864d" stroke-width="2.2"/>
      <ellipse cx="67.12" cy="4.48" rx="8" ry="5" fill="#a9c77d" opacity="0.94"/>
      <ellipse cx="77.12" cy="-1.52" rx="8" ry="5" fill="#7ea660" opacity="0.94"/>
      <ellipse cx="64" cy="88" rx="22" ry="8" fill="#a3d1d6" opacity="0.18"/>
    </g>
  </g>
  <g transform="translate(670 458)">
    <rect x="0" y="0" width="300" height="330" rx="26" fill="rgba(255,248,236,0.94)" stroke="rgba(140,98,54,0.16)" stroke-width="2"/>
    <text x="24" y="34" font-family="'PingFang SC','Hiragino Sans GB',sans-serif" font-size="16" fill="#4d392a">灵石</text>
    <text x="24" y="58" font-family="'SFMono-Regular',monospace" font-size="12" fill="#8a6a49">spirit_stone</text>
    <g transform="translate(28 56) scale(1.9063)">
      <ellipse cx="64" cy="160" rx="30" ry="8" fill="#3c2a1b" opacity="0.12" filter="url(#spirit_stone-mist)"/>
      <polygon points="28.16,92 64,109.92 64,115.92 28.16,98" fill="#8f96a5" stroke="#4d392a" stroke-opacity="0.28" stroke-width="1.1"/>
      <polygon points="98.56,92.64 64,109.92 64,115.92 98.56,98.64" fill="#646b7a" stroke="#4d392a" stroke-opacity="0.3" stroke-width="1.1"/>
      <polygon points="62.72,74.72 98.56,92.64 64,109.92 28.16,92" fill="#d2d4db" stroke="#4d392a" stroke-opacity="0.36" stroke-width="1.1"/>
      <polygon points="64,40 82,70 64,88 66,78" fill="#7185ad" stroke="#586987" stroke-opacity="0.34" stroke-width="1.2"/>
      <polygon points="64,40 46,74 62,80 64,88" fill="#9cb3d8" stroke="#586987" stroke-opacity="0.34" stroke-width="1.2"/>
      <polygon points="48,62 62,84 48,102 50,92" fill="#8996ab" stroke="#667284" stroke-opacity="0.34" stroke-width="1.2"/>
      <polygon points="48,62 34,88 46,94 48,102" fill="#c2cedf" stroke="#667284" stroke-opacity="0.34" stroke-width="1.2"/>
      <polygon points="84,70 96,88 84,106 86,96" fill="#708e9c" stroke="#56727f" stroke-opacity="0.34" stroke-width="1.2"/>
      <polygon points="84,70 72,92 82,98 84,106" fill="#a8c3cf" stroke="#56727f" stroke-opacity="0.34" stroke-width="1.2"/>
      <polygon points="34,102 43.6,84 58,91.2 60.4,105.6 44.8,111.6" fill="#5f6778" stroke="#525867" stroke-opacity="0.34" stroke-width="1"/>
      <polygon points="80,105 88,90 100,96 102,108 89,113" fill="#5f6778" stroke="#525867" stroke-opacity="0.34" stroke-width="1"/>
      <ellipse cx="64" cy="92" rx="18" ry="7" fill="#a3d1d6" opacity="0.14"/>
    </g>
  </g>
  <g transform="translate(990 458)">
    <rect x="0" y="0" width="300" height="330" rx="26" fill="rgba(255,248,236,0.94)" stroke="rgba(140,98,54,0.16)" stroke-width="2"/>
    <text x="24" y="34" font-family="'PingFang SC','Hiragino Sans GB',sans-serif" font-size="16" fill="#4d392a">药草</text>
    <text x="24" y="58" font-family="'SFMono-Regular',monospace" font-size="12" fill="#8a6a49">herb</text>
    <g transform="translate(18 69) scale(2.0625)">
      <ellipse cx="64" cy="144" rx="28" ry="7" fill="#3c2a1b" opacity="0.1" filter="url(#herb-mist)"/>
      <polygon points="29.44,74.08 66.56,92.64 66.56,97.64 29.44,79.08" fill="#b69467" stroke="#4d392a" stroke-opacity="0.28" stroke-width="1.1"/>
      <polygon points="99.84,76 66.56,92.64 66.56,97.64 99.84,81" fill="#8b6543" stroke="#4d392a" stroke-opacity="0.3" stroke-width="1.1"/>
      <polygon points="62.72,57.44 99.84,76 66.56,92.64 29.44,74.08" fill="#d5caa9" stroke="#4d392a" stroke-opacity="0.36" stroke-width="1.1"/>
      <path d="M 52 74 Q 42 54 47 44" stroke="#55763f" stroke-width="2.2" fill="none"/>
      <path d="M 52 74 Q 54 50 56 40" stroke="#55763f" stroke-width="2.4" fill="none"/>
      <path d="M 52 74 Q 64 56 66 46" stroke="#55763f" stroke-width="2" fill="none"/>
      <ellipse cx="48" cy="52" rx="8" ry="5" fill="#a9c77d" opacity="0.9"/>
      <ellipse cx="60" cy="58" rx="8" ry="5" fill="#7ea660" opacity="0.92"/>
      <path d="M 72 70 Q 61 48 66.5 37" stroke="#55763f" stroke-width="2.2" fill="none"/>
      <path d="M 72 70 Q 74.2 43.6 76.4 32.6" stroke="#55763f" stroke-width="2.4" fill="none"/>
      <path d="M 72 70 Q 85.2 50.2 87.4 39.2" stroke="#55763f" stroke-width="2" fill="none"/>
      <ellipse cx="67.6" cy="45.8" rx="8.8" ry="5.5" fill="#a9c77d" opacity="0.9"/>
      <ellipse cx="80.8" cy="52.4" rx="8.8" ry="5.5" fill="#7ea660" opacity="0.92"/>
      <path d="M 88 82 Q 79 64 83.5 55" stroke="#55763f" stroke-width="2.2" fill="none"/>
      <path d="M 88 82 Q 89.8 60.4 91.6 51.4" stroke="#55763f" stroke-width="2.4" fill="none"/>
      <path d="M 88 82 Q 98.8 65.8 100.6 56.8" stroke="#55763f" stroke-width="2" fill="none"/>
      <ellipse cx="84.4" cy="62.2" rx="7.2" ry="4.5" fill="#a9c77d" opacity="0.9"/>
      <ellipse cx="95.2" cy="67.6" rx="7.2" ry="4.5" fill="#7ea660" opacity="0.92"/>
      <ellipse cx="-3008" cy="4394" rx="10" ry="6" fill="#b98b4a"/>
      <line x1="-3014" y1="4392" x2="-3002" y2="4392" stroke="#8a6332" stroke-width="1.4"/>
    </g>
  </g>
</svg>
