<svg width="320" height="272" viewBox="0 0 320 272" fill="none" xmlns="http://www.w3.org/2000/svg">
  <title>弟子居</title>
  <desc>长向宿舍、生活感连廊、双屋身，对齐 2x3 footprint。</desc>
  <defs>
    <filter id="disciple_quarters-drop" x="0" y="0" width="320" height="272" filterUnits="userSpaceOnUse" color-interpolation-filters="sRGB">
      <feOffset dy="10"/>
      <feGaussianBlur stdDeviation="8"/>
      <feColorMatrix type="matrix" values="0 0 0 0 0.211765 0 0 0 0 0.152941 0 0 0 0 0.105882 0 0 0 0.18 0"/>
      <feBlend in2="SourceGraphic" result="shape"/>
    </filter>
    <filter id="disciple_quarters-mist" x="0" y="0" width="320" height="272" filterUnits="userSpaceOnUse" color-interpolation-filters="sRGB">
      <feGaussianBlur stdDeviation="6"/>
    </filter>
  </defs>
  <ellipse cx="192" cy="208" rx="90" ry="15" fill="#3c2a1b" opacity="0.16" filter="url(#disciple_quarters-mist)"/>
  <polygon points="33.28,191.6 139.52,244.72 139.52,258.72 33.28,205.6" fill="#c79c6f" stroke="#4d392a" stroke-opacity="0.28" stroke-width="1.5"/>
  <polygon points="290.56,169.2 139.52,244.72 139.52,258.72 290.56,183.2" fill="#966847" stroke="#4d392a" stroke-opacity="0.3" stroke-width="1.5"/>
  <polygon points="184.32,116.08 290.56,169.2 139.52,244.72 33.28,191.6" fill="#eee1c5" stroke="#4d392a" stroke-opacity="0.36" stroke-width="1.5"/>
  <line x1="179.2" y1="128.16" x2="60.16" y2="187.68" stroke="#a68256" stroke-opacity="0.2" stroke-width="1"/>
  <line x1="206.93" y1="142.03" x2="87.89" y2="201.55" stroke="#a68256" stroke-opacity="0.2" stroke-width="1"/>
  <line x1="234.67" y1="155.89" x2="115.63" y2="215.41" stroke="#a68256" stroke-opacity="0.2" stroke-width="1"/>
  <line x1="262.4" y1="169.76" x2="143.36" y2="229.28" stroke="#a68256" stroke-opacity="0.2" stroke-width="1"/>
  <line x1="179.2" y1="128.16" x2="262.4" y2="169.76" stroke="#a68256" stroke-opacity="0.2" stroke-width="1"/>
  <line x1="155.39" y1="140.06" x2="238.59" y2="181.66" stroke="#a68256" stroke-opacity="0.2" stroke-width="1"/>
  <line x1="131.58" y1="151.97" x2="214.78" y2="193.57" stroke="#a68256" stroke-opacity="0.2" stroke-width="1"/>
  <line x1="107.78" y1="163.87" x2="190.98" y2="205.47" stroke="#a68256" stroke-opacity="0.2" stroke-width="1"/>
  <line x1="83.97" y1="175.78" x2="167.17" y2="217.38" stroke="#a68256" stroke-opacity="0.2" stroke-width="1"/>
  <line x1="60.16" y1="187.68" x2="143.36" y2="229.28" stroke="#a68256" stroke-opacity="0.2" stroke-width="1"/>
  <polygon points="128,93.76 197.12,128.32 197.12,168.32 128,133.76" fill="#e8d1ac" stroke="#4d392a" stroke-opacity="0.28" stroke-width="1.5"/>
  <polygon points="243.2,105.28 197.12,128.32 197.12,168.32 243.2,145.28" fill="#c39a6b" stroke="#4d392a" stroke-opacity="0.3" stroke-width="1.5"/>
  <polygon points="174.08,70.72 243.2,105.28 197.12,128.32 128,93.76" fill="#f5ebd7" stroke="#4d392a" stroke-opacity="0.36" stroke-width="1.5"/>
  <line x1="133.12" y1="70.32" x2="133.12" y2="136.32" stroke="#96604a" stroke-width="6" stroke-linecap="round"/>
  <line x1="152.32" y1="79.92" x2="152.32" y2="145.92" stroke="#96604a" stroke-width="6" stroke-linecap="round"/>
  <line x1="171.52" y1="89.52" x2="171.52" y2="155.52" stroke="#96604a" stroke-width="6" stroke-linecap="round"/>
  <polygon points="174.08,27.2 266.24,73.28 212.48,61.93 156.77,34.08" fill="#5f7d84" stroke="#4d392a" stroke-opacity="0.42" stroke-width="1.6"/>
  <polygon points="107.52,60.48 199.68,106.56 212.48,61.93 156.77,34.08" fill="#425960" stroke="#4d392a" stroke-opacity="0.42" stroke-width="1.6"/>
  <polygon points="266.24,73.28 199.68,106.56 212.48,61.93" fill="#2b3d44" stroke="#4d392a" stroke-opacity="0.36" stroke-width="1.4"/>
  <polygon points="174.08,27.2 107.52,60.48 156.77,34.08" fill="#24343a" stroke="#4d392a" stroke-opacity="0.28" stroke-width="1.2"/>
  <line x1="117.37" y1="55.2" x2="202.24" y2="97.63" stroke="#26373d" stroke-opacity="0.24" stroke-width="1"/>
  <line x1="127.22" y1="49.92" x2="204.8" y2="88.71" stroke="#26373d" stroke-opacity="0.24" stroke-width="1"/>
  <line x1="137.07" y1="44.64" x2="207.36" y2="79.78" stroke="#26373d" stroke-opacity="0.24" stroke-width="1"/>
  <line x1="146.92" y1="39.36" x2="209.92" y2="70.86" stroke="#26373d" stroke-opacity="0.24" stroke-width="1"/>
  <polygon points="80.64,134.96 149.76,169.52 149.76,209.52 80.64,174.96" fill="#e8d1ac" stroke="#4d392a" stroke-opacity="0.28" stroke-width="1.5"/>
  <polygon points="195.84,146.48 149.76,169.52 149.76,209.52 195.84,186.48" fill="#c39a6b" stroke="#4d392a" stroke-opacity="0.3" stroke-width="1.5"/>
  <polygon points="126.72,111.92 195.84,146.48 149.76,169.52 80.64,134.96" fill="#f5ebd7" stroke="#4d392a" stroke-opacity="0.36" stroke-width="1.5"/>
  <line x1="85.76" y1="111.52" x2="85.76" y2="179.52" stroke="#96604a" stroke-width="6" stroke-linecap="round"/>
  <line x1="104.96" y1="121.12" x2="104.96" y2="189.12" stroke="#96604a" stroke-width="6" stroke-linecap="round"/>
  <line x1="124.16" y1="130.72" x2="124.16" y2="198.72" stroke="#96604a" stroke-width="6" stroke-linecap="round"/>
  <polygon points="126.72,68.4 218.88,114.48 165.12,105.13 109.41,77.28" fill="#5f7d84" stroke="#4d392a" stroke-opacity="0.42" stroke-width="1.6"/>
  <polygon points="60.16,101.68 152.32,147.76 165.12,105.13 109.41,77.28" fill="#425960" stroke="#4d392a" stroke-opacity="0.42" stroke-width="1.6"/>
  <polygon points="218.88,114.48 152.32,147.76 165.12,105.13" fill="#2b3d44" stroke="#4d392a" stroke-opacity="0.36" stroke-width="1.4"/>
  <polygon points="126.72,68.4 60.16,101.68 109.41,77.28" fill="#24343a" stroke="#4d392a" stroke-opacity="0.28" stroke-width="1.2"/>
  <line x1="70.01" y1="96.8" x2="154.88" y2="139.23" stroke="#26373d" stroke-opacity="0.24" stroke-width="1"/>
  <line x1="79.86" y1="91.92" x2="157.44" y2="130.71" stroke="#26373d" stroke-opacity="0.24" stroke-width="1"/>
  <line x1="89.71" y1="87.04" x2="160" y2="122.18" stroke="#26373d" stroke-opacity="0.24" stroke-width="1"/>
  <line x1="99.56" y1="82.16" x2="162.56" y2="113.66" stroke="#26373d" stroke-opacity="0.24" stroke-width="1"/>
  <polygon points="136.96,169.6 158.72,180.48 158.72,206.48 136.96,195.6" fill="#dab98f" stroke="#4d392a" stroke-opacity="0.28" stroke-width="1.5"/>
  <polygon points="234.24,142.72 158.72,180.48 158.72,206.48 234.24,168.72" fill="#b48d60" stroke="#4d392a" stroke-opacity="0.3" stroke-width="1.5"/>
  <polygon points="212.48,131.84 234.24,142.72 158.72,180.48 136.96,169.6" fill="#f5ebd7" stroke="#4d392a" stroke-opacity="0.36" stroke-width="1.5"/>
  <polygon points="212.48,96 241.92,110.72 158.72,162.32 129.28,147.6" fill="#425960" stroke="#4d392a" stroke-opacity="0.32" stroke-width="1.3"/>
  <line x1="93.44" y1="148.64" x2="143.36" y2="128.4" stroke="#6b4435" stroke-width="2.2"/>
  <line x1="143.36" y1="128.4" x2="143.36" y2="178.72" stroke="#6b4435" stroke-width="2.2"/>
  <polygon points="127.36,138.4 138.36,132.4 145.36,140.4 133.36,146.4" fill="#e6bfc7" opacity="0.94"/>
  <polygon points="133.36,184.72 147.36,177.72 153.36,186.72 139.36,193.72" fill="#a3c7cf" opacity="0.9"/>
  <ellipse cx="153.6" cy="210.48" rx="7" ry="4" fill="#b8874a"/>
  <path d="M 146.6 210.48 L 146.6 224.48 Q 153.6 230.48 160.6 224.48 L 160.6 210.48" fill="#9a6c3e" stroke="#6f4b2e" stroke-opacity="0.3" stroke-width="1.2"/>
  <ellipse cx="64.4" cy="175.6" rx="12" ry="8" fill="#a9c77d" opacity="0.94"/>
  <ellipse cx="76.4" cy="171.6" rx="10" ry="7" fill="#7ea660" opacity="0.88"/>
  <line x1="148.48" y1="222.88" x2="148.48" y2="206.88" stroke="#6b4435" stroke-width="2.2"/>
  <ellipse cx="148.48" cy="203.88" rx="4.5" ry="5.5" fill="#d9b06a" opacity="0.95"/>
</svg>
