<svg width="192" height="288" viewBox="0 0 192 288" fill="none" xmlns="http://www.w3.org/2000/svg">
  <title>护山台</title>
  <desc>塔状警戒建筑，石基木塔、旗帜与小铃，对齐 1x2 footprint。</desc>
  <defs>
    <filter id="guard_tower-drop" x="0" y="0" width="192" height="288" filterUnits="userSpaceOnUse" color-interpolation-filters="sRGB">
      <feOffset dy="10"/>
      <feGaussianBlur stdDeviation="8"/>
      <feColorMatrix type="matrix" values="0 0 0 0 0.211765 0 0 0 0 0.152941 0 0 0 0 0.105882 0 0 0 0.18 0"/>
      <feBlend in2="SourceGraphic" result="shape"/>
    </filter>
    <filter id="guard_tower-mist" x="0" y="0" width="192" height="288" filterUnits="userSpaceOnUse" color-interpolation-filters="sRGB">
      <feGaussianBlur stdDeviation="6"/>
    </filter>
  </defs>
  <ellipse cx="128" cy="288" rx="56" ry="12" fill="#3c2a1b" opacity="0.16" filter="url(#guard_tower-mist)"/>
  <polygon points="19.2,241.52 74.24,269.04 74.24,283.04 19.2,255.52" fill="#cfa676" stroke="#4d392a" stroke-opacity="0.28" stroke-width="1.5"/>
  <polygon points="174.08,219.12 74.24,269.04 74.24,283.04 174.08,233.12" fill="#9b7049" stroke="#4d392a" stroke-opacity="0.3" stroke-width="1.5"/>
  <polygon points="119.04,191.6 174.08,219.12 74.24,269.04 19.2,241.52" fill="#eee1c5" stroke="#4d392a" stroke-opacity="0.36" stroke-width="1.5"/>
  <polygon points="78.08,104.88 101.12,116.4 101.12,228.4 78.08,216.88" fill="#c59b69" stroke="#4d392a" stroke-opacity="0.28" stroke-width="1.5"/>
  <polygon points="126.72,103.6 101.12,116.4 101.12,228.4 126.72,215.6" fill="#996e49" stroke="#4d392a" stroke-opacity="0.3" stroke-width="1.5"/>
  <polygon points="103.68,92.08 126.72,103.6 101.12,116.4 78.08,104.88" fill="#ead9b8" stroke="#4d392a" stroke-opacity="0.36" stroke-width="1.5"/>
  <line x1="80" y1="79.84" x2="80" y2="199.84" stroke="#96604a" stroke-width="6" stroke-linecap="round"/>
  <line x1="91.52" y1="85.6" x2="91.52" y2="205.6" stroke="#96604a" stroke-width="6" stroke-linecap="round"/>
  <polygon points="61.44,79.68 107.52,102.72 107.52,122.72 61.44,99.68" fill="#e8d1ac" stroke="#4d392a" stroke-opacity="0.28" stroke-width="1.5"/>
  <polygon points="153.6,79.68 107.52,102.72 107.52,122.72 153.6,99.68" fill="#c39a6b" stroke="#4d392a" stroke-opacity="0.3" stroke-width="1.5"/>
  <polygon points="107.52,56.64 153.6,79.68 107.52,102.72 61.44,79.68" fill="#f5ebd7" stroke="#4d392a" stroke-opacity="0.36" stroke-width="1.5"/>
  <line x1="65.28" y1="57.6" x2="65.28" y2="119.6" stroke="#96604a" stroke-width="6" stroke-linecap="round"/>
  <line x1="78.72" y1="64.32" x2="78.72" y2="126.32" stroke="#96604a" stroke-width="6" stroke-linecap="round"/>
  <line x1="92.16" y1="71.04" x2="92.16" y2="133.04" stroke="#96604a" stroke-width="6" stroke-linecap="round"/>
  <polygon points="107.52,12.96 168.96,43.68 123.65,35.89 87.09,17.62" fill="#5f7d84" stroke="#4d392a" stroke-opacity="0.42" stroke-width="1.6"/>
  <polygon points="46.08,43.68 107.52,74.4 123.65,35.89 87.09,17.62" fill="#425960" stroke="#4d392a" stroke-opacity="0.42" stroke-width="1.6"/>
  <polygon points="168.96,43.68 107.52,74.4 123.65,35.89" fill="#2b3d44" stroke="#4d392a" stroke-opacity="0.36" stroke-width="1.4"/>
  <polygon points="107.52,12.96 46.08,43.68 87.09,17.62" fill="#24343a" stroke="#4d392a" stroke-opacity="0.28" stroke-width="1.2"/>
  <line x1="54.28" y1="38.47" x2="110.75" y2="66.7" stroke="#26373d" stroke-opacity="0.24" stroke-width="1"/>
  <line x1="62.48" y1="33.25" x2="113.97" y2="59" stroke="#26373d" stroke-opacity="0.24" stroke-width="1"/>
  <line x1="70.69" y1="28.04" x2="117.2" y2="51.3" stroke="#26373d" stroke-opacity="0.24" stroke-width="1"/>
  <line x1="78.89" y1="22.83" x2="120.42" y2="43.6" stroke="#26373d" stroke-opacity="0.24" stroke-width="1"/>
  <line x1="126.72" y1="19.76" x2="126.72" y2="63.76" stroke="#6b4435" stroke-width="2.4"/>
  <polygon points="126.72,25.76 148.72,31.76 136.72,43.76 126.72,37.76" fill="#a45a55" opacity="0.92"/>
  <line x1="103.68" y1="53.6" x2="103.68" y2="65.6" stroke="#6b4435" stroke-width="1.4"/>
  <ellipse cx="103.68" cy="67.6" rx="4.5" ry="5.5" fill="#d9b06a" opacity="0.9"/>
</svg>
