<svg width="128" height="112" viewBox="0 0 128 112" fill="none" xmlns="http://www.w3.org/2000/svg">
  <title>药草</title>
  <desc>药草资源点，草药丛与采药篮，对齐 1x1 footprint。</desc>
  <defs>
    <filter id="herb-drop" x="0" y="0" width="128" height="112" filterUnits="userSpaceOnUse" color-interpolation-filters="sRGB">
      <feOffset dy="10"/>
      <feGaussianBlur stdDeviation="8"/>
      <feColorMatrix type="matrix" values="0 0 0 0 0.211765 0 0 0 0 0.152941 0 0 0 0 0.105882 0 0 0 0.18 0"/>
      <feBlend in2="SourceGraphic" result="shape"/>
    </filter>
    <filter id="herb-mist" x="0" y="0" width="128" height="112" filterUnits="userSpaceOnUse" color-interpolation-filters="sRGB">
      <feGaussianBlur stdDeviation="6"/>
    </filter>
  </defs>
  <ellipse cx="64" cy="144" rx="28" ry="7" fill="#3c2a1b" opacity="0.1" filter="url(#herb-mist)"/>
  <polygon points="29.44,74.08 66.56,92.64 66.56,97.64 29.44,79.08" fill="#b69467" stroke="#4d392a" stroke-opacity="0.28" stroke-width="1.1"/>
  <polygon points="99.84,76 66.56,92.64 66.56,97.64 99.84,81" fill="#8b6543" stroke="#4d392a" stroke-opacity="0.3" stroke-width="1.1"/>
  <polygon points="62.72,57.44 99.84,76 66.56,92.64 29.44,74.08" fill="#d5caa9" stroke="#4d392a" stroke-opacity="0.36" stroke-width="1.1"/>
  <path d="M 52 74 Q 42 54 47 44" stroke="#55763f" stroke-width="2.2" fill="none"/>
  <path d="M 52 74 Q 54 50 56 40" stroke="#55763f" stroke-width="2.4" fill="none"/>
  <path d="M 52 74 Q 64 56 66 46" stroke="#55763f" stroke-width="2" fill="none"/>
  <ellipse cx="48" cy="52" rx="8" ry="5" fill="#a9c77d" opacity="0.9"/>
  <ellipse cx="60" cy="58" rx="8" ry="5" fill="#7ea660" opacity="0.92"/>
  <path d="M 72 70 Q 61 48 66.5 37" stroke="#55763f" stroke-width="2.2" fill="none"/>
  <path d="M 72 70 Q 74.2 43.6 76.4 32.6" stroke="#55763f" stroke-width="2.4" fill="none"/>
  <path d="M 72 70 Q 85.2 50.2 87.4 39.2" stroke="#55763f" stroke-width="2" fill="none"/>
  <ellipse cx="67.6" cy="45.8" rx="8.8" ry="5.5" fill="#a9c77d" opacity="0.9"/>
  <ellipse cx="80.8" cy="52.4" rx="8.8" ry="5.5" fill="#7ea660" opacity="0.92"/>
  <path d="M 88 82 Q 79 64 83.5 55" stroke="#55763f" stroke-width="2.2" fill="none"/>
  <path d="M 88 82 Q 89.8 60.4 91.6 51.4" stroke="#55763f" stroke-width="2.4" fill="none"/>
  <path d="M 88 82 Q 98.8 65.8 100.6 56.8" stroke="#55763f" stroke-width="2" fill="none"/>
  <ellipse cx="84.4" cy="62.2" rx="7.2" ry="4.5" fill="#a9c77d" opacity="0.9"/>
  <ellipse cx="95.2" cy="67.6" rx="7.2" ry="4.5" fill="#7ea660" opacity="0.92"/>
  <ellipse cx="-3008" cy="4394" rx="10" ry="6" fill="#b98b4a"/>
  <line x1="-3014" y1="4392" x2="-3002" y2="4392" stroke="#8a6332" stroke-width="1.4"/>
</svg>
