<svg width="384" height="336" viewBox="0 0 384 336" fill="none" xmlns="http://www.w3.org/2000/svg">
  <title>主殿</title>
  <desc>木石主殿、三层屋顶、中轴台阶、底部对齐 3x3 footprint。</desc>
  <defs>
    <filter id="main_hall-drop" x="0" y="0" width="384" height="336" filterUnits="userSpaceOnUse" color-interpolation-filters="sRGB">
      <feOffset dy="10"/>
      <feGaussianBlur stdDeviation="8"/>
      <feColorMatrix type="matrix" values="0 0 0 0 0.211765 0 0 0 0 0.152941 0 0 0 0 0.105882 0 0 0 0.18 0"/>
      <feBlend in2="SourceGraphic" result="shape"/>
    </filter>
    <filter id="main_hall-mist" x="0" y="0" width="384" height="336" filterUnits="userSpaceOnUse" color-interpolation-filters="sRGB">
      <feGaussianBlur stdDeviation="6"/>
    </filter>
  </defs>
  <ellipse cx="192" cy="240" rx="104" ry="18" fill="#3c2a1b" opacity="0.18" filter="url(#main_hall-mist)"/>
  <ellipse cx="162" cy="176" rx="64" ry="16" fill="#fff8ef" opacity="0.24" filter="url(#main_hall-mist)"/>
  <polygon points="32,217.52 200.96,302 200.96,322 32,237.52" fill="#cfa676" stroke="#4d392a" stroke-opacity="0.28" stroke-width="1.5"/>
  <polygon points="358.4,223.28 200.96,302 200.96,322 358.4,243.28" fill="#9b7049" stroke="#4d392a" stroke-opacity="0.3" stroke-width="1.5"/>
  <polygon points="189.44,138.8 358.4,223.28 200.96,302 32,217.52" fill="#eee1c5" stroke="#4d392a" stroke-opacity="0.36" stroke-width="1.5"/>
  <line x1="189.44" y1="156" x2="70.4" y2="215.52" stroke="#a68256" stroke-opacity="0.2" stroke-width="1"/>
  <line x1="222.08" y1="172.32" x2="103.04" y2="231.84" stroke="#a68256" stroke-opacity="0.2" stroke-width="1"/>
  <line x1="254.72" y1="188.64" x2="135.68" y2="248.16" stroke="#a68256" stroke-opacity="0.2" stroke-width="1"/>
  <line x1="287.36" y1="204.96" x2="168.32" y2="264.48" stroke="#a68256" stroke-opacity="0.2" stroke-width="1"/>
  <line x1="320" y1="221.28" x2="200.96" y2="280.8" stroke="#a68256" stroke-opacity="0.2" stroke-width="1"/>
  <line x1="189.44" y1="156" x2="320" y2="221.28" stroke="#a68256" stroke-opacity="0.2" stroke-width="1"/>
  <line x1="159.68" y1="170.88" x2="290.24" y2="236.16" stroke="#a68256" stroke-opacity="0.2" stroke-width="1"/>
  <line x1="129.92" y1="185.76" x2="260.48" y2="251.04" stroke="#a68256" stroke-opacity="0.2" stroke-width="1"/>
  <line x1="100.16" y1="200.64" x2="230.72" y2="265.92" stroke="#a68256" stroke-opacity="0.2" stroke-width="1"/>
  <line x1="70.4" y1="215.52" x2="200.96" y2="280.8" stroke="#a68256" stroke-opacity="0.2" stroke-width="1"/>
  <polygon points="118.72,231.76 172.48,258.64 172.48,263.64 118.72,236.76" fill="#d8b583" stroke="#4d392a" stroke-opacity="0.28" stroke-width="1.1"/>
  <polygon points="185.6,252.08 172.48,258.64 172.48,263.64 185.6,257.08" fill="#ad8152" stroke="#4d392a" stroke-opacity="0.3" stroke-width="1.1"/>
  <polygon points="131.84,225.2 185.6,252.08 172.48,258.64 118.72,231.76" fill="#f7ecd7" stroke="#4d392a" stroke-opacity="0.36" stroke-width="1.1"/>
  <polygon points="106.88,242.68 160.64,269.56 160.64,274.56 106.88,247.68" fill="#d8b583" stroke="#4d392a" stroke-opacity="0.28" stroke-width="1.1"/>
  <polygon points="173.76,263 160.64,269.56 160.64,274.56 173.76,268" fill="#ad8152" stroke="#4d392a" stroke-opacity="0.3" stroke-width="1.1"/>
  <polygon points="120,236.12 173.76,263 160.64,269.56 106.88,242.68" fill="#f7ecd7" stroke="#4d392a" stroke-opacity="0.36" stroke-width="1.1"/>
  <polygon points="95.04,253.6 148.8,280.48 148.8,285.48 95.04,258.6" fill="#d8b583" stroke="#4d392a" stroke-opacity="0.28" stroke-width="1.1"/>
  <polygon points="161.92,273.92 148.8,280.48 148.8,285.48 161.92,278.92" fill="#ad8152" stroke="#4d392a" stroke-opacity="0.3" stroke-width="1.1"/>
  <polygon points="108.16,247.04 161.92,273.92 148.8,280.48 95.04,253.6" fill="#f7ecd7" stroke="#4d392a" stroke-opacity="0.36" stroke-width="1.1"/>
  <polygon points="83.2,264.52 136.96,291.4 136.96,296.4 83.2,269.52" fill="#d8b583" stroke="#4d392a" stroke-opacity="0.28" stroke-width="1.1"/>
  <polygon points="150.08,284.84 136.96,291.4 136.96,296.4 150.08,289.84" fill="#ad8152" stroke="#4d392a" stroke-opacity="0.3" stroke-width="1.1"/>
  <polygon points="96.32,257.96 150.08,284.84 136.96,291.4 83.2,264.52" fill="#f7ecd7" stroke="#4d392a" stroke-opacity="0.36" stroke-width="1.1"/>
  <polygon points="186.88,208.48 217.6,223.84 134.4,265.44 103.68,250.08" fill="#e8cd92" opacity="0.92" stroke="#a37a49" stroke-opacity="0.26" stroke-width="1.1"/>
  <polygon points="97.28,158.64 138.24,179.12 138.24,219.12 97.28,198.64" fill="#e8d1ac" stroke="#4d392a" stroke-opacity="0.28" stroke-width="1.5"/>
  <polygon points="190.72,152.88 138.24,179.12 138.24,219.12 190.72,192.88" fill="#c39a6b" stroke="#4d392a" stroke-opacity="0.3" stroke-width="1.5"/>
  <polygon points="149.76,132.4 190.72,152.88 138.24,179.12 97.28,158.64" fill="#f5ebd7" stroke="#4d392a" stroke-opacity="0.36" stroke-width="1.5"/>
  <line x1="101.12" y1="136.56" x2="101.12" y2="196.56" stroke="#96604a" stroke-width="6" stroke-linecap="round"/>
  <line x1="119.04" y1="145.52" x2="119.04" y2="205.52" stroke="#96604a" stroke-width="6" stroke-linecap="round"/>
  <polygon points="151.04,85.52 215.04,117.52 161.64,110.5 125.08,92.22" fill="#5f7d84" stroke="#4d392a" stroke-opacity="0.42" stroke-width="1.6"/>
  <polygon points="76.8,122.64 140.8,154.64 161.64,110.5 125.08,92.22" fill="#425960" stroke="#4d392a" stroke-opacity="0.42" stroke-width="1.6"/>
  <polygon points="215.04,117.52 140.8,154.64 161.64,110.5" fill="#2b3d44" stroke="#4d392a" stroke-opacity="0.36" stroke-width="1.4"/>
  <polygon points="151.04,85.52 76.8,122.64 125.08,92.22" fill="#24343a" stroke="#4d392a" stroke-opacity="0.28" stroke-width="1.2"/>
  <line x1="86.46" y1="116.56" x2="144.97" y2="145.81" stroke="#26373d" stroke-opacity="0.24" stroke-width="1"/>
  <line x1="96.11" y1="110.47" x2="149.14" y2="136.98" stroke="#26373d" stroke-opacity="0.24" stroke-width="1"/>
  <line x1="105.77" y1="104.39" x2="153.3" y2="128.16" stroke="#26373d" stroke-opacity="0.24" stroke-width="1"/>
  <line x1="115.43" y1="98.3" x2="157.47" y2="119.33" stroke="#26373d" stroke-opacity="0.24" stroke-width="1"/>
  <polygon points="186.88,203.44 227.84,223.92 227.84,263.92 186.88,243.44" fill="#e8d1ac" stroke="#4d392a" stroke-opacity="0.28" stroke-width="1.5"/>
  <polygon points="280.32,197.68 227.84,223.92 227.84,263.92 280.32,237.68" fill="#c39a6b" stroke="#4d392a" stroke-opacity="0.3" stroke-width="1.5"/>
  <polygon points="239.36,177.2 280.32,197.68 227.84,223.92 186.88,203.44" fill="#f5ebd7" stroke="#4d392a" stroke-opacity="0.36" stroke-width="1.5"/>
  <line x1="190.72" y1="181.36" x2="190.72" y2="241.36" stroke="#96604a" stroke-width="6" stroke-linecap="round"/>
  <line x1="208.64" y1="190.32" x2="208.64" y2="250.32" stroke="#96604a" stroke-width="6" stroke-linecap="round"/>
  <polygon points="240.64,130.32 304.64,162.32 251.24,155.3 214.68,137.02" fill="#5f7d84" stroke="#4d392a" stroke-opacity="0.42" stroke-width="1.6"/>
  <polygon points="166.4,167.44 230.4,199.44 251.24,155.3 214.68,137.02" fill="#425960" stroke="#4d392a" stroke-opacity="0.42" stroke-width="1.6"/>
  <polygon points="304.64,162.32 230.4,199.44 251.24,155.3" fill="#2b3d44" stroke="#4d392a" stroke-opacity="0.36" stroke-width="1.4"/>
  <polygon points="240.64,130.32 166.4,167.44 214.68,137.02" fill="#24343a" stroke="#4d392a" stroke-opacity="0.28" stroke-width="1.2"/>
  <line x1="176.06" y1="161.36" x2="234.57" y2="190.61" stroke="#26373d" stroke-opacity="0.24" stroke-width="1"/>
  <line x1="185.71" y1="155.27" x2="238.74" y2="181.78" stroke="#26373d" stroke-opacity="0.24" stroke-width="1"/>
  <line x1="195.37" y1="149.19" x2="242.9" y2="172.96" stroke="#26373d" stroke-opacity="0.24" stroke-width="1"/>
  <line x1="205.03" y1="143.1" x2="247.07" y2="164.13" stroke="#26373d" stroke-opacity="0.24" stroke-width="1"/>
  <polygon points="134.4,127.52 207.36,164 207.36,222 134.4,185.52" fill="#e8d1ac" stroke="#4d392a" stroke-opacity="0.28" stroke-width="1.5"/>
  <polygon points="273.92,130.72 207.36,164 207.36,222 273.92,188.72" fill="#a47b4e" stroke="#4d392a" stroke-opacity="0.3" stroke-width="1.5"/>
  <polygon points="200.96,94.24 273.92,130.72 207.36,164 134.4,127.52" fill="#f5ebd7" stroke="#4d392a" stroke-opacity="0.36" stroke-width="1.5"/>
  <line x1="139.52" y1="96.08" x2="139.52" y2="188.08" stroke="#96604a" stroke-width="6" stroke-linecap="round"/>
  <line x1="157.44" y1="105.04" x2="157.44" y2="197.04" stroke="#96604a" stroke-width="6" stroke-linecap="round"/>
  <line x1="175.36" y1="114" x2="175.36" y2="206" stroke="#96604a" stroke-width="6" stroke-linecap="round"/>
  <line x1="193.28" y1="122.96" x2="193.28" y2="214.96" stroke="#96604a" stroke-width="6" stroke-linecap="round"/>
  <polygon points="160,167.76 186.88,181.2 186.88,259.2 160,245.76" fill="#59453a" stroke="#7b6148" stroke-opacity="0.3" stroke-width="1.2"/>
  <polygon points="199.68,31.52 304.64,84 230.71,70.95 169.78,40.49" fill="#5f7d84" stroke="#4d392a" stroke-opacity="0.42" stroke-width="1.6"/>
  <polygon points="102.4,80.16 207.36,132.64 230.71,70.95 169.78,40.49" fill="#425960" stroke="#4d392a" stroke-opacity="0.42" stroke-width="1.6"/>
  <polygon points="304.64,84 207.36,132.64 230.71,70.95" fill="#2b3d44" stroke="#4d392a" stroke-opacity="0.36" stroke-width="1.4"/>
  <polygon points="199.68,31.52 102.4,80.16 169.78,40.49" fill="#24343a" stroke="#4d392a" stroke-opacity="0.28" stroke-width="1.2"/>
  <line x1="115.88" y1="72.23" x2="212.03" y2="120.3" stroke="#26373d" stroke-opacity="0.24" stroke-width="1"/>
  <line x1="129.35" y1="64.29" x2="216.7" y2="107.96" stroke="#26373d" stroke-opacity="0.24" stroke-width="1"/>
  <line x1="142.83" y1="56.36" x2="221.37" y2="95.63" stroke="#26373d" stroke-opacity="0.24" stroke-width="1"/>
  <line x1="156.3" y1="48.42" x2="226.04" y2="83.29" stroke="#26373d" stroke-opacity="0.24" stroke-width="1"/>
  <polygon points="172.8,84.24 208.64,102.16 208.64,136.16 172.8,118.24" fill="#e8d1ac" stroke="#4d392a" stroke-opacity="0.28" stroke-width="1.5"/>
  <polygon points="243.2,84.88 208.64,102.16 208.64,136.16 243.2,118.88" fill="#c39a6b" stroke="#4d392a" stroke-opacity="0.3" stroke-width="1.5"/>
  <polygon points="207.36,66.96 243.2,84.88 208.64,102.16 172.8,84.24" fill="#f5ebd7" stroke="#4d392a" stroke-opacity="0.36" stroke-width="1.5"/>
  <polygon points="206.08,25.36 263.68,54.16 221.67,44.47 189.47,28.36" fill="#5f7d84" stroke="#4d392a" stroke-opacity="0.42" stroke-width="1.6"/>
  <polygon points="151.04,52.88 208.64,81.68 221.67,44.47 189.47,28.36" fill="#425960" stroke="#4d392a" stroke-opacity="0.42" stroke-width="1.6"/>
  <polygon points="263.68,54.16 208.64,81.68 221.67,44.47" fill="#2b3d44" stroke="#4d392a" stroke-opacity="0.36" stroke-width="1.4"/>
  <polygon points="206.08,25.36 151.04,52.88 189.47,28.36" fill="#24343a" stroke="#4d392a" stroke-opacity="0.28" stroke-width="1.2"/>
  <line x1="158.73" y1="47.98" x2="211.25" y2="74.24" stroke="#26373d" stroke-opacity="0.24" stroke-width="1"/>
  <line x1="166.41" y1="43.07" x2="213.85" y2="66.79" stroke="#26373d" stroke-opacity="0.24" stroke-width="1"/>
  <line x1="174.1" y1="38.17" x2="216.46" y2="59.35" stroke="#26373d" stroke-opacity="0.24" stroke-width="1"/>
  <line x1="181.78" y1="33.27" x2="219.06" y2="51.91" stroke="#26373d" stroke-opacity="0.24" stroke-width="1"/>
  <line x1="177.46" y1="44.33" x2="238.39" y2="74.79" stroke="#d9b06a" stroke-width="2.4"/>
  <polygon points="207.92,47.56 213.92,57.56 207.92,65.56 201.92,57.56" fill="#d9b06a" stroke="#a8793f" stroke-opacity="0.3" stroke-width="1"/>
  <line x1="189.47" y1="28.36" x2="221.67" y2="44.47" stroke="#d9b06a" stroke-width="2.4"/>
  <polygon points="205.57,24.42 211.57,34.42 205.57,42.42 199.57,34.42" fill="#d9b06a" stroke="#a8793f" stroke-opacity="0.3" stroke-width="1"/>
  <line x1="106.24" y1="226.48" x2="106.24" y2="210.48" stroke="#6b4435" stroke-width="2.2"/>
  <ellipse cx="106.24" cy="207.48" rx="4.5" ry="5.5" fill="#d9b06a" opacity="0.95"/>
  <line x1="183.04" y1="264.88" x2="183.04" y2="248.88" stroke="#6b4435" stroke-width="2.2"/>
  <ellipse cx="183.04" cy="245.88" rx="4.5" ry="5.5" fill="#d9b06a" opacity="0.95"/>
  <ellipse cx="70.8" cy="206.64" rx="12" ry="8" fill="#e6bcc7" opacity="0.94"/>
  <ellipse cx="82.8" cy="202.64" rx="10" ry="7" fill="#e6bcc7" opacity="0.88"/>
  <ellipse cx="220.56" cy="272.56" rx="12" ry="8" fill="#a3d1d6" opacity="0.94"/>
  <ellipse cx="232.56" cy="268.56" rx="10" ry="7" fill="#84bcc5" opacity="0.88"/>
</svg>
