<svg width="96" height="96" viewBox="0 0 96 96" fill="none" xmlns="http://www.w3.org/2000/svg">
  <title>弟子头像 - 受伤</title>
  <desc>高可读大头弟子 token，受伤状态，琥珀护环、额头绷带与面部伤痕，适用于 HP 明显下滑但仍可行动的状态。</desc>
  <defs>
    <linearGradient id="disciple-injured-ring" x1="22" y1="18" x2="74" y2="78" gradientUnits="userSpaceOnUse">
      <stop offset="0" stop-color="#FFD8A0"/>
      <stop offset="1" stop-color="#BF6A45"/>
    </linearGradient>
    <linearGradient id="disciple-injured-face" x1="48" y1="24" x2="48" y2="74" gradientUnits="userSpaceOnUse">
      <stop offset="0" stop-color="#F2DFC5"/>
      <stop offset="1" stop-color="#D1A57B"/>
    </linearGradient>
  </defs>
  <ellipse cx="48" cy="83" rx="23" ry="7" fill="#2D2015" opacity="0.18"/>
  <circle cx="48" cy="48" r="31" fill="#3A2A25"/>
  <circle cx="48" cy="48" r="28" fill="url(#disciple-injured-ring)"/>
  <circle cx="48" cy="48" r="24" fill="#221A1C"/>
  <ellipse cx="48" cy="30" rx="12" ry="10" fill="#2B2328"/>
  <path d="M39 30C39 21.716 45.716 15 54 15C62.284 15 69 21.716 69 30V44H39V30Z" fill="#241C23"/>
  <path d="M25 43C25 30.297 35.297 20 48 20C60.703 20 71 30.297 71 43V54C71 66.703 60.703 77 48 77C35.297 77 25 66.703 25 54V43Z" fill="url(#disciple-injured-face)"/>
  <path d="M28 46C31.4 39.2 38.8 35 48 35C57.2 35 64.6 39.2 68 46V33C68 22.507 59.493 14 49 14H47C36.507 14 28 22.507 28 33V46Z" fill="#2C2330"/>
  <rect x="35" y="30" width="24" height="8" rx="4" fill="#F1E5D1" transform="rotate(-8 35 30)"/>
  <path d="M39 31L41.5 35" stroke="#D7B36C" stroke-width="1.5" stroke-linecap="round"/>
  <path d="M46 30L48.5 34" stroke="#D7B36C" stroke-width="1.5" stroke-linecap="round"/>
  <path d="M53 29L55.5 33" stroke="#D7B36C" stroke-width="1.5" stroke-linecap="round"/>
  <ellipse cx="38" cy="50" rx="3.4" ry="4.2" fill="#2C2330"/>
  <ellipse cx="58" cy="50" rx="3.4" ry="4.2" fill="#2C2330"/>
  <path d="M35 43.5L41 41" stroke="#2C2330" stroke-width="2.4" stroke-linecap="round"/>
  <path d="M61 43.5L55 41" stroke="#2C2330" stroke-width="2.4" stroke-linecap="round"/>
  <path d="M43 63C46.4 60.5 49.6 60.5 53 63" stroke="#8D4743" stroke-width="2.8" stroke-linecap="round"/>
  <path d="M58.5 55.5L63.5 60.5" stroke="#A24742" stroke-width="2.4" stroke-linecap="round"/>
  <path d="M56.5 61.5L62.5 56.5" stroke="#A24742" stroke-width="2.4" stroke-linecap="round"/>
  <path d="M28 65C31 70 36 74 42 76" stroke="#F0C37A" stroke-width="3" stroke-linecap="round" opacity="0.8"/>
</svg>
