<svg width="96" height="96" viewBox="0 0 96 96" fill="none" xmlns="http://www.w3.org/2000/svg">
  <title>弟子头像 - 死亡</title>
  <desc>高可读大头弟子 token，死亡状态，灰白护环、闭目神情与冷灰纪念花，适用于地图上的死亡标记。</desc>
  <defs>
    <linearGradient id="disciple-dead-ring" x1="22" y1="18" x2="74" y2="78" gradientUnits="userSpaceOnUse">
      <stop offset="0" stop-color="#E5E7EA"/>
      <stop offset="1" stop-color="#7B818A"/>
    </linearGradient>
    <linearGradient id="disciple-dead-face" x1="48" y1="24" x2="48" y2="74" gradientUnits="userSpaceOnUse">
      <stop offset="0" stop-color="#F0EEEC"/>
      <stop offset="1" stop-color="#C3BEC0"/>
    </linearGradient>
  </defs>
  <ellipse cx="48" cy="83" rx="23" ry="7" fill="#161616" opacity="0.2"/>
  <circle cx="48" cy="48" r="31" fill="#25282D"/>
  <circle cx="48" cy="48" r="28" fill="url(#disciple-dead-ring)"/>
  <circle cx="48" cy="48" r="24" fill="#171A1E"/>
  <ellipse cx="48" cy="30" rx="12" ry="10" fill="#2B2E33"/>
  <path d="M39 30C39 21.716 45.716 15 54 15C62.284 15 69 21.716 69 30V44H39V30Z" fill="#2B2E33"/>
  <path d="M25 43C25 30.297 35.297 20 48 20C60.703 20 71 30.297 71 43V54C71 66.703 60.703 77 48 77C35.297 77 25 66.703 25 54V43Z" fill="url(#disciple-dead-face)"/>
  <path d="M28 46C31.4 39.2 38.8 35 48 35C57.2 35 64.6 39.2 68 46V33C68 22.507 59.493 14 49 14H47C36.507 14 28 22.507 28 33V46Z" fill="#30343A"/>
  <path d="M34 50L42 54" stroke="#565B63" stroke-width="2.6" stroke-linecap="round"/>
  <path d="M42 50L34 54" stroke="#565B63" stroke-width="2.6" stroke-linecap="round"/>
  <path d="M54 50L62 54" stroke="#565B63" stroke-width="2.6" stroke-linecap="round"/>
  <path d="M62 50L54 54" stroke="#565B63" stroke-width="2.6" stroke-linecap="round"/>
  <path d="M43 64C46.5 65 49.5 65 53 64" stroke="#8B8488" stroke-width="2.8" stroke-linecap="round"/>
  <circle cx="68" cy="66" r="7" fill="#E6E7EA"/>
  <circle cx="63.5" cy="70.5" r="7" fill="#D4D8DD"/>
  <circle cx="72.5" cy="70.5" r="7" fill="#CFD3D9"/>
  <circle cx="68" cy="75" r="7" fill="#E0E3E7"/>
  <circle cx="68" cy="70.5" r="4" fill="#C8CDD4"/>
  <path d="M18 48C22 30 34 20 48 20" stroke="#D5D7DB" stroke-width="3" stroke-linecap="round" opacity="0.56"/>
</svg>
