<svg width="512" height="512" viewBox="0 0 512 512" fill="none" xmlns="http://www.w3.org/2000/svg">
  <defs>
    <linearGradient id="roofTop" x1="128" y1="126" x2="358" y2="262" gradientUnits="userSpaceOnUse">
      <stop stop-color="#7EA0A2"/>
      <stop offset="0.45" stop-color="#5C7980"/>
      <stop offset="1" stop-color="#33474F"/>
    </linearGradient>
    <linearGradient id="roofFace" x1="144" y1="188" x2="357" y2="263" gradientUnits="userSpaceOnUse">
      <stop stop-color="#4F6970"/>
      <stop offset="1" stop-color="#24353C"/>
    </linearGradient>
    <linearGradient id="roofSide" x1="292" y1="176" x2="379" y2="264" gradientUnits="userSpaceOnUse">
      <stop stop-color="#365058"/>
      <stop offset="1" stop-color="#1F2F35"/>
    </linearGradient>
    <linearGradient id="wallFront" x1="168" y1="198" x2="338" y2="338" gradientUnits="userSpaceOnUse">
      <stop stop-color="#FFF8EB"/>
      <stop offset="1" stop-color="#E5CFAD"/>
    </linearGradient>
    <linearGradient id="wallSide" x1="316" y1="214" x2="382" y2="332" gradientUnits="userSpaceOnUse">
      <stop stop-color="#D3B48A"/>
      <stop offset="1" stop-color="#AC8154"/>
    </linearGradient>
    <linearGradient id="wallLeft" x1="126" y1="228" x2="198" y2="348" gradientUnits="userSpaceOnUse">
      <stop stop-color="#E3C9A6"/>
      <stop offset="1" stop-color="#B38A5F"/>
    </linearGradient>
    <linearGradient id="platformTop" x1="110" y1="246" x2="393" y2="362" gradientUnits="userSpaceOnUse">
      <stop stop-color="#FBF1DE"/>
      <stop offset="1" stop-color="#E6D2AC"/>
    </linearGradient>
    <linearGradient id="platformLeft" x1="124" y1="312" x2="256" y2="430" gradientUnits="userSpaceOnUse">
      <stop stop-color="#C9A06D"/>
      <stop offset="1" stop-color="#936846"/>
    </linearGradient>
    <linearGradient id="platformRight" x1="258" y1="306" x2="395" y2="418" gradientUnits="userSpaceOnUse">
      <stop stop-color="#B98B59"/>
      <stop offset="1" stop-color="#7A5637"/>
    </linearGradient>
    <linearGradient id="columnRed" x1="170" y1="206" x2="170" y2="338" gradientUnits="userSpaceOnUse">
      <stop stop-color="#C47C62"/>
      <stop offset="1" stop-color="#7E4B39"/>
    </linearGradient>
    <linearGradient id="goldLine" x1="178" y1="164" x2="353" y2="255" gradientUnits="userSpaceOnUse">
      <stop stop-color="#F2D79D"/>
      <stop offset="1" stop-color="#BC8A45"/>
    </linearGradient>
    <filter id="shadowBlur" x="66" y="214" width="380" height="236" filterUnits="userSpaceOnUse" color-interpolation-filters="sRGB">
      <feGaussianBlur stdDeviation="18"/>
    </filter>
    <filter id="dropSoft" x="82" y="92" width="350" height="334" filterUnits="userSpaceOnUse" color-interpolation-filters="sRGB">
      <feOffset dy="14"/>
      <feGaussianBlur stdDeviation="10"/>
      <feColorMatrix type="matrix" values="0 0 0 0 0.227451 0 0 0 0 0.168627 0 0 0 0 0.121569 0 0 0 0.22 0"/>
      <feBlend in2="SourceGraphic" result="shape"/>
    </filter>
    <filter id="mist" x="54" y="84" width="404" height="338" filterUnits="userSpaceOnUse" color-interpolation-filters="sRGB">
      <feGaussianBlur stdDeviation="10"/>
    </filter>
  </defs>

  <ellipse cx="256" cy="392" rx="138" ry="30" fill="#5B4431" fill-opacity="0.22" filter="url(#shadowBlur)"/>

  <g filter="url(#mist)" opacity="0.58">
    <ellipse cx="166" cy="286" rx="44" ry="18" fill="#FFF7EB"/>
    <ellipse cx="344" cy="260" rx="56" ry="22" fill="#FFF8F0"/>
    <ellipse cx="256" cy="198" rx="86" ry="20" fill="#F8F3E7"/>
  </g>

  <g filter="url(#dropSoft)" stroke-linejoin="round" stroke-linecap="round">
    <path d="M124 309L256 239L388 309L256 377L124 309Z" fill="url(#platformTop)" stroke="#A97E52" stroke-opacity="0.45" stroke-width="2"/>
    <path d="M124 309L256 377V425L124 355V309Z" fill="url(#platformLeft)" stroke="#7C5838" stroke-opacity="0.4" stroke-width="2"/>
    <path d="M388 309L256 377V425L388 355V309Z" fill="url(#platformRight)" stroke="#6F4E31" stroke-opacity="0.4" stroke-width="2"/>

    <path d="M212 348L256 326L300 348L256 371L212 348Z" fill="#F5E7C7" stroke="#B98D59" stroke-opacity="0.38" stroke-width="1.6"/>
    <path d="M224 364L256 347L288 364L256 381L224 364Z" fill="#EFD8A8" stroke="#B98D59" stroke-opacity="0.28" stroke-width="1.4"/>
    <path d="M236 379L256 368L276 379L256 389L236 379Z" fill="#E6C78B" stroke="#B98D59" stroke-opacity="0.22" stroke-width="1.2"/>

    <path d="M160 248L213 218L213 332L160 360V248Z" fill="url(#wallLeft)" stroke="#8A643D" stroke-opacity="0.4" stroke-width="2"/>
    <path d="M213 218H256V332L213 332V218Z" fill="url(#wallFront)" stroke="#9C7446" stroke-opacity="0.34" stroke-width="2"/>
    <path d="M256 218L308 244V356H256V332V218Z" fill="url(#wallSide)" stroke="#8A643D" stroke-opacity="0.34" stroke-width="2"/>

    <path d="M262 204L320 174L320 286L262 316V204Z" fill="url(#wallLeft)" stroke="#8A643D" stroke-opacity="0.38" stroke-width="2"/>
    <path d="M320 174H360V286L320 286V174Z" fill="url(#wallFront)" stroke="#9C7446" stroke-opacity="0.32" stroke-width="2"/>
    <path d="M360 174L404 196V304L360 286V174Z" fill="url(#wallSide)" stroke="#8A643D" stroke-opacity="0.32" stroke-width="2"/>

    <path d="M200 180L256 148L256 270L200 298V180Z" fill="url(#wallLeft)" stroke="#8A643D" stroke-opacity="0.38" stroke-width="2"/>
    <path d="M256 148H316V270H256V148Z" fill="url(#wallFront)" stroke="#9C7446" stroke-opacity="0.32" stroke-width="2"/>
    <path d="M316 148L370 176V292L316 270V148Z" fill="url(#wallSide)" stroke="#8A643D" stroke-opacity="0.34" stroke-width="2"/>

    <path d="M136 243L192 212L252 242L198 278L136 243Z" fill="url(#roofTop)" stroke="#22333B" stroke-opacity="0.52" stroke-width="2.2"/>
    <path d="M198 278L252 242L252 258L198 294L198 278Z" fill="url(#roofFace)" stroke="#1F2F35" stroke-opacity="0.4" stroke-width="1.6"/>
    <path d="M252 242L290 262L290 278L252 258V242Z" fill="url(#roofSide)" stroke="#1F2F35" stroke-opacity="0.36" stroke-width="1.6"/>
    <path d="M268 256L320 228L374 257L322 291L268 256Z" fill="url(#roofTop)" stroke="#22333B" stroke-opacity="0.5" stroke-width="2"/>
    <path d="M322 291L374 257L381 272L329 306L322 291Z" fill="url(#roofFace)" stroke="#1F2F35" stroke-opacity="0.36" stroke-width="1.5"/>

    <path d="M168 215L243 172L326 214L252 264L168 215Z" fill="url(#roofTop)" stroke="#22333B" stroke-opacity="0.56" stroke-width="2.4"/>
    <path d="M252 264L326 214L335 232L262 284L252 264Z" fill="url(#roofFace)" stroke="#1F2F35" stroke-opacity="0.42" stroke-width="1.8"/>
    <path d="M326 214L364 234L374 254L335 232L326 214Z" fill="url(#roofSide)" stroke="#1F2F35" stroke-opacity="0.38" stroke-width="1.8"/>

    <path d="M188 174L280 122L380 172L292 231L188 174Z" fill="url(#roofTop)" stroke="#22333B" stroke-opacity="0.6" stroke-width="2.8"/>
    <path d="M292 231L380 172L392 193L306 252L292 231Z" fill="url(#roofFace)" stroke="#1F2F35" stroke-opacity="0.46" stroke-width="2"/>
    <path d="M380 172L414 189L428 210L392 193L380 172Z" fill="url(#roofSide)" stroke="#1F2F35" stroke-opacity="0.42" stroke-width="2"/>

    <path d="M232 120L278 94L326 118L281 149L232 120Z" fill="url(#roofTop)" stroke="#22333B" stroke-opacity="0.62" stroke-width="2.4"/>
    <path d="M281 149L326 118L333 129L289 161L281 149Z" fill="url(#roofFace)" stroke="#1F2F35" stroke-opacity="0.46" stroke-width="1.8"/>

    <path d="M174 216L174 340" stroke="url(#columnRed)" stroke-width="10"/>
    <path d="M202 202L202 334" stroke="url(#columnRed)" stroke-width="10"/>
    <path d="M230 190L230 326" stroke="url(#columnRed)" stroke-width="10"/>
    <path d="M282 175L282 305" stroke="url(#columnRed)" stroke-width="10"/>
    <path d="M312 160L312 298" stroke="url(#columnRed)" stroke-width="10"/>
    <path d="M342 145L342 288" stroke="url(#columnRed)" stroke-width="10"/>

    <path d="M219 243H251V255H219V243Z" fill="#8B6148" fill-opacity="0.78"/>
    <path d="M218 255H250V332H218V255Z" fill="#5E4A3D" fill-opacity="0.78"/>
    <path d="M252 226H304V240H252V226Z" fill="#8F6249" fill-opacity="0.82"/>
    <path d="M252 240H304V342H252V240Z" fill="#564338" fill-opacity="0.86"/>
    <path d="M254 240H277V342H254V240Z" fill="#665145" fill-opacity="0.86"/>
    <path d="M279 240H302V342H279V240Z" fill="#46362E" fill-opacity="0.8"/>
    <path d="M306 210H344V223H306V210Z" fill="#8B6148" fill-opacity="0.76"/>
    <path d="M306 223H344V304H306V223Z" fill="#544137" fill-opacity="0.78"/>
    <circle cx="267" cy="291" r="4.2" fill="#E9C473"/>
    <circle cx="287" cy="291" r="4.2" fill="#E9C473"/>

    <path d="M168 245L252 196" stroke="url(#goldLine)" stroke-width="3"/>
    <path d="M243 172L326 214" stroke="url(#goldLine)" stroke-width="3"/>
    <path d="M280 122L292 231" stroke="url(#goldLine)" stroke-width="3"/>
    <path d="M232 120L281 149" stroke="url(#goldLine)" stroke-width="2.4"/>
    <path d="M278 94L289 161" stroke="url(#goldLine)" stroke-width="2.4"/>

    <path d="M278 86L286 100L278 115L270 100L278 86Z" fill="url(#goldLine)" stroke="#8A622E" stroke-opacity="0.42" stroke-width="1"/>
    <circle cx="208" cy="310" r="7" fill="#E9C473"/>
    <circle cx="327" cy="284" r="7" fill="#E9C473"/>

    <path d="M148 300L162 293L176 300L162 307L148 300Z" fill="#C9D6A2" stroke="#7D8E62" stroke-opacity="0.55" stroke-width="1.3"/>
    <path d="M340 330L356 322L372 330L356 338L340 330Z" fill="#9FC1CB" stroke="#6A8B99" stroke-opacity="0.5" stroke-width="1.3"/>

    <path d="M140 322C149 310 165 307 178 316C167 313 160 322 160 335C153 334 145 329 140 322Z" fill="#EBC8D1" fill-opacity="0.92"/>
    <path d="M346 308C357 296 373 294 387 303C376 300 367 309 366 321C358 320 350 316 346 308Z" fill="#EBC8D1" fill-opacity="0.88"/>
  </g>
</svg>
